<svg width="30" height="14" viewBox="0 0 30 14" fill="none" xmlns="http://www.w3.org/2000/svg">
<g clip-path="url(#clip0_170_647)">
<path d="M30 0.914673H0V13.0854H30V0.914673Z" fill="#D7182A"/>
<mask id="mask0_170_647" style="mask-type:luminance" maskUnits="userSpaceOnUse" x="0" y="0" width="30" height="14">
<path d="M30 0.914673H0V13.0854H30V0.914673Z" fill="white"/>
</mask>
<g mask="url(#mask0_170_647)">
<path d="M6.60194 11.044H2.37701V3.18872H6.35613C6.35613 3.18872 8.64329 3.27918 8.69507 5.39789C8.69507 5.39789 8.69507 6.75483 8.01005 7.06428C8.01005 7.06428 8.97894 7.56837 8.92778 8.89911C8.92778 8.89911 8.97956 10.9667 6.60194 11.044ZM4.79331 6.14717H5.79339C5.79339 6.14717 6.11095 6.12097 6.11095 5.73354C6.11095 5.73354 6.13279 5.28122 5.81523 5.28122H4.79331V6.14717ZM5.99491 8.18851H4.79331V9.05446H5.96933C5.96933 9.05446 6.34428 9.02888 6.34428 8.64145C6.34366 8.64145 6.36924 8.18851 5.99491 8.18851Z" fill="#FFD400"/>
</g>
<mask id="mask1_170_647" style="mask-type:luminance" maskUnits="userSpaceOnUse" x="0" y="0" width="30" height="14">
<path d="M30 0.914673H0V13.0854H30V0.914673Z" fill="white"/>
</mask>
<g mask="url(#mask1_170_647)">
<path d="M11.9243 3.18872H9.4306V11.044H11.9243V3.18872Z" fill="#FFD400"/>
</g>
<mask id="mask2_170_647" style="mask-type:luminance" maskUnits="userSpaceOnUse" x="0" y="0" width="30" height="14">
<path d="M30 0.914673H0V13.0854H30V0.914673Z" fill="white"/>
</mask>
<g mask="url(#mask2_170_647)">
<path d="M15.1541 8.87416V3.18872H12.6611V11.044H16.692V8.87416H15.1541Z" fill="#FFD400"/>
</g>
<mask id="mask3_170_647" style="mask-type:luminance" maskUnits="userSpaceOnUse" x="0" y="0" width="30" height="14">
<path d="M30 0.914673H0V13.0854H30V0.914673Z" fill="white"/>
</mask>
<g mask="url(#mask3_170_647)">
<path d="M19.6242 8.87416V3.18872H17.1306V11.044H21.1615V8.87416H19.6242Z" fill="#FFD400"/>
</g>
<mask id="mask4_170_647" style="mask-type:luminance" maskUnits="userSpaceOnUse" x="0" y="0" width="30" height="14">
<path d="M30 0.914673H0V13.0854H30V0.914673Z" fill="white"/>
</mask>
<g mask="url(#mask4_170_647)">
<path d="M23.511 3.18872L21.4017 11.044H23.5509L23.8591 10.0358H25.6609L25.9691 11.044H28.1184L26.0078 3.18872H23.511ZM24.3427 8.45304L24.7594 7.08798L25.1768 8.45304H24.3427Z" fill="#FFD400"/>
</g>
</g>
<defs>
<clipPath id="clip0_170_647">
<rect width="30" height="12.1707" fill="white" transform="translate(0 0.914673)"/>
</clipPath>
</defs>
</svg>
