<svg width="30" height="18" viewBox="0 0 30 18" fill="none" xmlns="http://www.w3.org/2000/svg">
<path d="M25.6292 3.10711C23.8854 2.14235 21.7853 1.44804 19.4922 1.06213C22.9711 1.92859 25.8679 3.58246 27.5457 5.72729C28.705 7.21057 29.1824 8.83375 28.926 10.4231C28.693 11.8679 27.8755 13.1739 26.6215 14.2608C27.1611 13.8944 27.6651 13.4781 28.1267 13.0173C29.378 11.753 30.025 10.3233 29.999 8.88264C29.9584 6.69569 28.406 4.64447 25.6292 3.10763V3.10711ZM2.5198 12.2034C1.36105 10.7211 0.883092 9.09796 1.13897 7.50858C1.3288 6.33163 1.92118 5.21969 2.85629 4.23933C2.50952 4.50535 2.18079 4.79412 1.87229 5.10371C0.621489 6.36699 -0.0260156 7.79723 0.000508717 9.23838C0.0410753 11.4253 1.59301 13.4765 4.37078 15.0139C6.79801 16.3568 9.91956 17.1754 13.2866 17.3668C8.62299 16.8009 4.61782 14.886 2.5198 12.2034Z" fill="#E1001A"/>
<path d="M27.306 5.90676C26.8768 5.36424 26.3915 4.86862 25.8581 4.42816C26.9544 5.60355 27.5941 6.95681 27.6955 8.3808C27.8152 10.0664 27.1812 11.726 25.8607 13.1817C23.9551 15.2808 20.8268 16.7323 17.286 17.2082C20.0139 17.0558 22.5649 16.3927 24.5698 15.3021C26.878 14.0482 28.3191 12.2986 28.6286 10.3764C28.8714 8.86864 28.4143 7.32295 27.306 5.90572V5.90676ZM2.37003 9.55047C2.24989 7.86488 2.88439 6.20477 4.2054 4.74957C6.10943 2.65207 9.23514 1.20104 12.7733 0.724121C10.048 0.877026 7.50014 1.53961 5.49573 2.62919C3.18812 3.88363 1.74749 5.6332 1.43752 7.55491C1.19464 9.06263 1.65179 10.6073 2.75957 12.0245C3.18834 12.5667 3.67314 13.0622 4.20592 13.5026C3.11011 12.3272 2.47144 10.975 2.37003 9.55151V9.55047Z" fill="#40A52B"/>
<path d="M23.0912 3.4114C20.9932 2.1013 18.2316 1.37891 15.3139 1.37891C15.0419 1.37891 14.7662 1.38515 14.4927 1.39815C10.6399 1.57602 7.14544 2.99741 5.14676 5.19997C3.96253 6.50486 3.39252 7.99126 3.49965 9.49742C3.63695 11.4223 4.87059 13.2061 6.97434 14.5209C9.07236 15.831 11.8345 16.5529 14.7517 16.5529C15.0232 16.5529 15.2993 16.5466 15.5724 16.5342C19.4252 16.3563 22.9191 14.9349 24.9183 12.7318C26.1025 11.4269 26.673 9.94105 26.5649 8.43437C26.4286 6.51006 25.1939 4.72565 23.0912 3.4114Z" fill="#E1001A"/>
<path d="M10.2706 13.3009L10.0246 13.3258C10.035 13.2655 10.0314 13.2286 10.0147 13.215C9.99809 13.2015 9.96689 13.1963 9.9206 13.2015L9.8946 13.2041C9.89305 13.2056 9.89102 13.2065 9.88888 13.2067L9.88315 13.2072C9.85155 13.2106 9.82076 13.2194 9.79214 13.2332C9.76301 13.2473 9.74429 13.279 9.73597 13.3289C9.72973 13.3659 9.73025 13.3934 9.73857 13.4106C9.74689 13.4278 9.76561 13.4356 9.79578 13.435L9.83999 13.4335C9.85507 13.4324 9.87067 13.4324 9.88575 13.4324L9.89148 13.4319L9.89876 13.4309C9.99549 13.4257 10.0808 13.4356 10.1552 13.4584C10.2295 13.4818 10.2524 13.576 10.2243 13.7403L10.2155 13.7918C10.2067 13.8488 10.1909 13.9045 10.1687 13.9577C10.1541 13.9935 10.1323 14.0259 10.1047 14.0529C10.0718 14.0859 10.0325 14.1117 9.98925 14.1288C9.93892 14.1482 9.8863 14.1609 9.83271 14.1668L9.7989 14.1704L9.73389 14.1756C9.60075 14.1892 9.50297 14.1814 9.44056 14.1528C9.37815 14.1231 9.36359 14.0134 9.39636 13.822L9.64288 13.7944C9.63489 13.8292 9.63489 13.8653 9.64288 13.9C9.6512 13.925 9.67564 13.9348 9.71569 13.9312L9.82751 13.9203C9.85793 13.9185 9.88751 13.9096 9.91384 13.8943C9.9388 13.8797 9.95597 13.8449 9.96481 13.7903C9.97365 13.7388 9.96845 13.7096 9.94973 13.7003C9.931 13.6909 9.905 13.6878 9.87171 13.6888L9.86651 13.6894L9.86131 13.6899L9.81502 13.6909L9.77134 13.692C9.66108 13.6966 9.57682 13.6831 9.52014 13.6535C9.46293 13.6243 9.4494 13.5209 9.48009 13.344C9.49829 13.239 9.53002 13.1568 9.5763 13.0975C9.62259 13.0382 9.68916 12.9997 9.77654 12.982L9.86235 12.9675C9.89148 12.9628 9.91904 12.9592 9.94712 12.9566C10.0589 12.9451 10.15 12.9503 10.2186 12.9737C10.2878 12.9966 10.3075 13.0928 10.2779 13.265C10.2772 13.2711 10.2762 13.2772 10.2748 13.2832L10.2717 13.2941L10.2701 13.304L10.2706 13.3009ZM11.4439 12.8125L11.3139 13.5718C11.3118 13.5874 11.3082 13.603 11.3056 13.6165L11.2962 13.6592C11.2947 13.6638 11.2935 13.6685 11.2926 13.6732C11.292 13.6783 11.2906 13.6832 11.2884 13.6878L11.2827 13.7169C11.2806 13.7268 11.2784 13.7367 11.2759 13.7466C11.2411 13.8677 11.1849 13.9484 11.1074 13.9884C11.0329 14.0277 10.9515 14.0522 10.8677 14.0607L10.8328 14.0643C10.694 14.0784 10.5899 14.0701 10.5208 14.0383C10.4516 14.0066 10.435 13.8891 10.4693 13.6847L10.6045 12.8983L10.8635 12.8713L10.7288 13.6561C10.7168 13.7268 10.7226 13.7689 10.7465 13.7809C10.7704 13.7929 10.8073 13.797 10.8562 13.7918C10.903 13.7903 10.9488 13.7778 10.9899 13.7554C11.0185 13.7377 11.0393 13.6878 11.0533 13.6077L11.1849 12.8385L11.4439 12.8125ZM11.7159 12.7849L12.094 12.747C12.2376 12.734 12.3432 12.7449 12.4102 12.7818C12.4773 12.8182 12.4935 12.9415 12.4576 13.1495C12.4543 13.1666 12.4513 13.1838 12.4487 13.201C12.4456 13.2182 12.4425 13.2353 12.4383 13.253C12.4316 13.2879 12.4227 13.3222 12.4113 13.356C12.3998 13.3898 12.3853 13.4246 12.3666 13.4564C12.3403 13.5079 12.2987 13.5501 12.2475 13.577C12.2022 13.5994 12.1541 13.6155 12.1044 13.6249C12.0914 13.626 12.0784 13.6275 12.0654 13.6295C12.0524 13.6316 12.0394 13.6337 12.0269 13.6347L12.0249 13.6353H12.0233L12.0004 13.6374L11.977 13.6399L11.822 13.6556L11.769 13.9624L11.51 13.9889L11.7159 12.7849ZM12.0316 13.3596C12.0862 13.3513 12.1226 13.3393 12.1419 13.3217C12.1611 13.304 12.1757 13.265 12.1861 13.2026L12.1892 13.1864C12.2005 13.1389 12.2028 13.0897 12.196 13.0413C12.1887 13.0138 12.1544 13.0034 12.0935 13.0096L11.9286 13.0263L11.8683 13.3763L12.0316 13.3596ZM12.9298 13.1349L13.3412 13.0933L13.3027 13.317L12.8913 13.3586L12.8508 13.5916L13.2996 13.5463L13.2549 13.8111L12.547 13.8828L12.753 12.6799L13.453 12.6086L13.4067 12.8744L12.9667 12.9186L12.9298 13.1349ZM13.7089 12.5826L14.1952 12.5332C14.3184 12.5218 14.4016 12.5389 14.4464 12.5852C14.4906 12.6305 14.4989 12.7345 14.4713 12.8952C14.4599 12.9713 14.4393 13.0456 14.41 13.1167C14.3845 13.1745 14.3242 13.2197 14.2311 13.253L14.2295 13.2639C14.2883 13.2629 14.3283 13.2806 14.3502 13.318C14.372 13.3555 14.3762 13.4111 14.3632 13.4844L14.3262 13.7029L14.0631 13.7289L14.0906 13.5682C14.099 13.5311 14.0981 13.4925 14.088 13.4558C14.0782 13.4288 14.0516 13.4179 14.009 13.4226L13.8166 13.4418L13.7619 13.7596L13.5024 13.7861L13.7089 12.5826ZM14.0688 13.1443C14.1156 13.1417 14.1468 13.1256 14.1619 13.0965C14.1799 13.0585 14.1918 13.018 14.1973 12.9763C14.2071 12.9344 14.2092 12.8911 14.2035 12.8484C14.1978 12.8213 14.1671 12.8115 14.112 12.8167L13.9195 12.8343L13.8623 13.1662L14.0688 13.1443ZM15.7762 13.5552L15.5214 13.5817L15.6982 12.658L15.6909 12.6586L15.2926 13.6046L15.0694 13.6275L14.981 12.7303L14.9722 12.7314L14.8364 13.6509L14.5816 13.6769L14.7875 12.4739L15.1958 12.4318L15.2504 13.1688L15.2603 13.1677L15.5646 12.3943L15.9827 12.3522L15.7762 13.5552ZM16.3109 13.2977L16.2292 13.5094L15.9593 13.537L16.4549 12.3044L16.8476 12.2648L16.9355 13.4382L16.6718 13.4647L16.6562 13.2624L16.3109 13.2977ZM16.6141 12.5238L16.4071 13.0585L16.6474 13.0346L16.6141 12.5238ZM17.3256 12.216L17.8124 12.166C17.9356 12.1546 18.0194 12.1723 18.0636 12.2175C18.1078 12.2638 18.1166 12.3668 18.089 12.528C18.0734 12.6185 18.0532 12.6918 18.0277 12.7501C18.0022 12.8068 17.9424 12.8525 17.8482 12.8863L17.8462 12.8973C17.9049 12.8957 17.9455 12.9139 17.9668 12.9514C17.9881 12.9883 17.9928 13.0439 17.9803 13.1173L17.9429 13.3357L17.6792 13.3627L17.7068 13.202C17.7164 13.1649 17.7153 13.1258 17.7037 13.0892C17.6938 13.0632 17.6678 13.0512 17.6256 13.0559L17.4322 13.0751L17.3781 13.3924L17.1186 13.4189L17.3256 12.216ZM17.686 12.7782C17.7328 12.774 17.764 12.7584 17.7791 12.7293C17.7967 12.6912 17.8084 12.6507 17.8139 12.6091C17.8243 12.5509 17.8264 12.5077 17.8207 12.4812C17.815 12.4547 17.7843 12.4438 17.7291 12.4495L17.5367 12.4672L17.4805 12.799L17.686 12.7782ZM18.5857 12.5363L18.6637 12.5285L18.9909 12.0464L19.3024 12.0152L18.8608 12.6409L19.124 13.2156L18.8057 13.2478L18.618 12.8005L18.54 12.8089L18.4583 13.2827L18.1993 13.3097L18.4053 12.1062L18.6643 12.0802L18.5857 12.5363ZM19.6919 12.449L20.1033 12.4068L20.0648 12.6305L19.6535 12.6726L19.6139 12.9046L20.0622 12.8593L20.017 13.1245L19.3092 13.1968L19.5151 11.9934L20.2146 11.9226L20.1689 12.1879L19.7289 12.2321L19.6919 12.449ZM20.7014 13.0559L20.4429 13.0819L20.6016 12.1567L20.3566 12.1822L20.4039 11.9039L21.169 11.8264L21.1217 12.1041L20.8611 12.1307L20.7014 13.0559Z" fill="#BD0926"/>
<path d="M10.2207 13.2352L9.97469 13.2607C9.98509 13.2009 9.98145 13.1629 9.96481 13.1499C9.94817 13.1364 9.91696 13.1312 9.87068 13.1369L9.84467 13.1395C9.84294 13.1411 9.84074 13.142 9.83843 13.1421L9.83271 13.1427C9.80046 13.1463 9.7703 13.1541 9.74117 13.1681C9.71205 13.1822 9.69333 13.2144 9.685 13.2644C9.67876 13.3013 9.67928 13.3283 9.68708 13.345C9.69489 13.3621 9.71413 13.3699 9.74481 13.3694L9.78902 13.3684L9.83427 13.3673L9.84051 13.3663L9.84779 13.3658C9.94453 13.3606 10.0298 13.3699 10.1042 13.3933C10.1786 13.4162 10.2014 13.5109 10.1734 13.6752L10.1645 13.7267C10.1615 13.7449 10.1577 13.763 10.1531 13.7808C10.1444 13.8189 10.1323 13.8561 10.1172 13.8921C10.1026 13.9279 10.0808 13.9602 10.0532 13.9873C10.0205 14.0205 9.98114 14.0465 9.93777 14.0637C9.88735 14.0828 9.83477 14.0955 9.78122 14.1017L9.74742 14.1053L9.68344 14.1121C9.5503 14.1256 9.45253 14.1178 9.39012 14.0887C9.32771 14.0596 9.31314 13.9488 9.34591 13.7579L9.59243 13.7304C9.58463 13.7766 9.58463 13.8115 9.59243 13.8365C9.60023 13.8614 9.62467 13.8713 9.66524 13.8671L9.77654 13.8562C9.80705 13.8546 9.83669 13.8454 9.86287 13.8297C9.88784 13.8151 9.905 13.7803 9.91436 13.7257C9.9232 13.6747 9.918 13.6451 9.89928 13.6362C9.88056 13.6274 9.85403 13.6237 9.82127 13.6248H9.81659L9.81139 13.6253L9.76458 13.6263C9.75002 13.6274 9.73545 13.6274 9.72141 13.6274C9.61115 13.6315 9.5269 13.6185 9.47021 13.5894C9.413 13.5593 9.39948 13.4563 9.43016 13.2794C9.44837 13.1744 9.48009 13.0922 9.52638 13.0324C9.57699 12.9712 9.64817 12.9305 9.72661 12.918C9.75522 12.9123 9.78382 12.9076 9.81243 12.9029C9.84065 12.8978 9.86912 12.8942 9.89772 12.892C10.0095 12.8811 10.1 12.8857 10.1692 12.9086C10.2384 12.9315 10.2576 13.0282 10.2285 13.2009L10.2269 13.2108L10.2254 13.2186L10.2223 13.229C10.2212 13.2321 10.2212 13.2358 10.2207 13.2394V13.2352ZM11.394 12.7484L11.264 13.5072L11.2557 13.5525C11.2531 13.5665 11.2494 13.5811 11.2463 13.5941C11.2449 13.5991 11.2437 13.6041 11.2427 13.6092C11.2421 13.6139 11.2406 13.6185 11.239 13.6232L11.2333 13.6523C11.2313 13.6623 11.229 13.6722 11.2265 13.682C11.1917 13.8032 11.1355 13.8848 11.058 13.9244C10.9834 13.9634 10.902 13.9879 10.8183 13.9966L10.7834 14.0003C10.6446 14.0143 10.5405 14.006 10.4714 13.9743C10.4022 13.9426 10.385 13.825 10.4204 13.6196L10.5551 12.8337L10.8141 12.8072L10.6799 13.592C10.668 13.6627 10.6737 13.7049 10.6971 13.7163C10.7319 13.7301 10.7699 13.7339 10.8068 13.7272C10.8677 13.721 10.9124 13.709 10.9405 13.6908C10.9686 13.6726 10.9899 13.6232 11.0039 13.5426L11.135 12.7739L11.394 12.7484ZM11.666 12.7198L12.0441 12.6819C12.1877 12.6689 12.2932 12.6798 12.3603 12.7172C12.4274 12.7542 12.443 12.8769 12.4071 13.0849L12.3983 13.1364C12.3952 13.1536 12.392 13.1707 12.3879 13.1879C12.3811 13.2228 12.3723 13.2576 12.3608 13.2919C12.3494 13.3263 12.3348 13.3601 12.3161 13.3918C12.2897 13.4432 12.2481 13.4853 12.197 13.5124C12.14 13.5409 12.0783 13.5587 12.015 13.565L11.9765 13.5697L11.9744 13.5702H11.9723C11.9648 13.5716 11.9571 13.5725 11.9495 13.5728C11.9419 13.5739 11.9342 13.5748 11.9266 13.5754L11.7721 13.591L11.7191 13.8978L11.4601 13.9244L11.666 12.7198ZM11.9817 13.295C12.0363 13.2867 12.0732 13.2742 12.0925 13.2571C12.1117 13.2399 12.1263 13.2004 12.1367 13.138L12.1398 13.1219C12.1511 13.0743 12.1534 13.0251 12.1466 12.9768C12.1393 12.9492 12.105 12.9393 12.0446 12.945L11.8798 12.9617L11.82 13.3117L11.9817 13.295ZM12.8799 13.0704L13.2913 13.0288L13.2533 13.2524L12.8419 13.2945L12.8019 13.527L13.2507 13.4812L13.2055 13.747L12.4976 13.8183L12.7036 12.6153L13.4031 12.5446L13.3573 12.8103L12.9173 12.8545L12.8799 13.0704ZM13.659 12.518L14.1458 12.4681C14.269 12.4572 14.3522 12.4749 14.397 12.5201C14.4412 12.5659 14.4495 12.6694 14.4219 12.8306C14.4063 12.9211 14.386 12.9944 14.3606 13.0522C14.3351 13.1099 14.2753 13.1551 14.1811 13.1884L14.1796 13.1994C14.2383 13.1978 14.2789 13.216 14.3002 13.2534C14.3221 13.2909 14.3262 13.3465 14.3132 13.4193L14.2763 13.6383L14.0126 13.6648L14.0407 13.5041C14.0492 13.467 14.0482 13.4284 14.0376 13.3918C14.0272 13.3653 14.0007 13.3538 13.9585 13.3585L13.7661 13.3777L13.712 13.695L13.4525 13.722L13.659 12.518ZM14.0189 13.0803C14.0657 13.0766 14.0969 13.0605 14.112 13.0319C14.1294 12.9937 14.1413 12.9533 14.1473 12.9117C14.1572 12.8698 14.1593 12.8265 14.1536 12.7838C14.1473 12.7562 14.1172 12.7469 14.062 12.7521L13.8691 12.7692L13.8124 13.1016L14.0189 13.0803ZM15.7258 13.4911L15.4715 13.5166L15.6478 12.5935L15.6405 12.5945L15.2426 13.54L15.0195 13.5624L14.9311 12.6657L14.9223 12.6668L14.7865 13.5868L14.5312 13.6123L14.7376 12.4093L15.1459 12.3677L15.2 13.1052L15.2099 13.1042L15.5131 12.3303L15.9312 12.2882L15.7258 13.4911ZM16.2615 13.2321L16.1793 13.4443L15.9104 13.4724L16.4055 12.2393L16.7982 12.2003L16.8861 13.3731L16.6224 13.4001L16.6073 13.1978L16.2615 13.2321ZM16.5642 12.4593L16.3561 12.9944L16.5969 12.97L16.5642 12.4593ZM17.2756 12.1509L17.7624 12.1015C17.8852 12.0905 17.9689 12.1072 18.0136 12.1529C18.0578 12.1992 18.0667 12.3022 18.0391 12.4634C18.0235 12.5539 18.0032 12.6273 17.9777 12.6855C17.9517 12.7427 17.8925 12.7885 17.7983 12.8213L17.7962 12.8322C17.855 12.8311 17.8956 12.8493 17.9169 12.8868C17.9382 12.9237 17.9429 12.9799 17.9304 13.0527L17.8925 13.2711L17.6293 13.2977L17.6569 13.1375C17.6662 13.1004 17.6651 13.0616 17.6537 13.0251C17.6439 12.9981 17.6179 12.9872 17.5752 12.9913L17.3823 13.0111L17.3282 13.3283L17.0692 13.3543L17.2756 12.1509ZM17.6361 12.7136C17.6829 12.71 17.7135 12.6938 17.7291 12.6647C17.7467 12.6266 17.7586 12.5861 17.7645 12.5446C17.7736 12.5025 17.7757 12.4593 17.7708 12.4166C17.7645 12.3896 17.7349 12.3792 17.6792 12.3844L17.4868 12.4026L17.4306 12.7349L17.6361 12.7136ZM18.5358 12.4718L18.6138 12.464L18.9409 11.9818L19.2525 11.9506L18.8109 12.5763L19.0741 13.1505L18.7558 13.1827L18.5675 12.736L18.489 12.7438L18.4084 13.2181L18.1494 13.2446L18.3553 12.0416L18.6143 12.0156L18.5358 12.4718ZM19.642 12.3844L20.0534 12.3423L20.0149 12.5659L19.6041 12.6075L19.564 12.8405L20.0123 12.7947L19.9676 13.06L19.2598 13.1323L19.4662 11.9293L20.1652 11.8581L20.1195 12.1238L19.6795 12.168L19.642 12.3844ZM20.6515 12.9908L20.393 13.0168L20.5516 12.0916L20.3067 12.1165L20.354 11.8388L21.1191 11.7618L21.0712 12.039L20.8112 12.0661L20.6515 12.9908Z" fill="white"/>
<path d="M25.6677 9.3929C25.5741 10.1517 25.3832 10.6598 25.0935 10.9157C24.8033 11.1721 24.3555 11.3318 23.7486 11.3952C23.6039 11.4099 23.4587 11.4196 23.3133 11.4243C23.1261 11.4223 22.9518 11.3869 22.7906 11.3183C22.6294 11.2496 22.5285 11.1107 22.4853 10.8996C22.4716 10.8212 22.4642 10.7419 22.463 10.6624C22.4622 10.5764 22.4673 10.4904 22.478 10.405C22.4801 10.3826 22.4822 10.3597 22.4832 10.3348C22.4843 10.3098 22.4853 10.2859 22.4884 10.2635L22.4952 10.2094L22.502 10.1548L23.5088 10.0492C23.4839 10.2609 23.512 10.3863 23.5931 10.4247C23.6753 10.4627 23.7933 10.4742 23.9462 10.4575C24.122 10.4393 24.2624 10.393 24.368 10.3181C24.4731 10.2438 24.5402 10.0872 24.5698 9.84745L24.6801 8.95239L24.6307 8.95707C24.5339 9.18799 24.4049 9.36066 24.2448 9.47663C24.0909 9.59042 23.9093 9.66083 23.719 9.68051C23.3903 9.71431 23.1209 9.6623 22.9087 9.52136C22.6975 9.38094 22.5966 9.09593 22.6091 8.6653C22.6138 8.51604 22.6231 8.36521 22.6377 8.21231C22.6523 8.0594 22.6689 7.90494 22.6876 7.74839C22.7552 7.2023 22.8775 6.74775 23.0574 6.38421C23.2368 6.02119 23.59 5.81212 24.1184 5.75647C24.368 5.73047 24.5641 5.75647 24.7045 5.83604C24.8465 5.91458 24.9427 6.09661 24.9947 6.38317L25.0446 6.36965L25.0811 5.68054L26.1368 5.5708L25.6672 9.39394L25.6677 9.3929ZM23.7065 7.98763C23.6784 8.21075 23.6851 8.38602 23.7242 8.51396C23.7632 8.6419 23.9083 8.69235 24.1574 8.66634C24.4169 8.6393 24.5828 8.54776 24.6546 8.39174C24.7264 8.23571 24.7752 8.04276 24.8038 7.81444L24.8434 7.48835C24.8761 7.21999 24.8767 7.01247 24.8455 6.86477C24.8127 6.71603 24.6608 6.65674 24.3873 6.68534C24.1454 6.71031 23.992 6.77324 23.9244 6.87413C23.8568 6.97503 23.8074 7.15862 23.7746 7.42646L23.7444 7.66882L23.7065 7.98763ZM4.50392 7.56428L7.02685 6.46275C7.4476 6.42426 7.77161 6.48563 7.99888 6.64634C8.22616 6.80704 8.30417 7.17422 8.23396 7.74891C8.19444 8.07293 8.12423 8.35585 8.02333 8.60081C7.92243 8.84577 7.6988 9.01896 7.35242 9.1209L7.34722 9.1625C7.65771 9.16874 7.85482 9.26652 7.93908 9.45531C8.02333 9.64514 8.04309 9.92339 7.99785 10.2911C7.92139 10.9157 7.76641 11.3495 7.53289 11.5913C7.29989 11.8337 6.90983 11.9829 6.36322 12.0396L3.82001 12.3059L4.50392 7.56324V7.56428ZM6.04129 10.8621C6.23528 10.8476 6.39859 10.8091 6.53173 10.7488C6.66487 10.6884 6.7486 10.521 6.78137 10.2479C6.81361 9.9858 6.78293 9.83601 6.68879 9.79909C6.59466 9.76216 6.45111 9.75384 6.25608 9.77412L5.34593 9.86982L5.21383 10.949L6.04129 10.8621ZM6.26596 8.74852C6.2838 8.75181 6.30202 8.75251 6.32005 8.7506L6.36894 8.74592C6.51768 8.72459 6.64667 8.68715 6.7564 8.63462C6.86562 8.58157 6.93427 8.44063 6.96236 8.21283C6.98732 8.01208 6.97484 7.87685 6.92647 7.80716C6.87758 7.73799 6.77045 7.71251 6.6035 7.72967L5.5961 7.83525L5.4744 8.83017L6.26596 8.74852Z" fill="#E1001A"/>
<path d="M4.96263 6.51323L7.48556 6.24954C7.9063 6.21054 8.23032 6.27191 8.45759 6.43261C8.68539 6.59384 8.7634 6.96102 8.69319 7.53519C8.65367 7.85868 8.58293 8.14213 8.48204 8.38709C8.38114 8.63205 8.15751 8.80524 7.81113 8.90718L7.80593 8.9493C8.11642 8.95554 8.31301 9.0528 8.39778 9.24211C8.48152 9.43142 8.50128 9.71019 8.45655 10.0784C8.3801 10.703 8.22512 11.1368 7.99212 11.3786C7.7586 11.621 7.36854 11.7702 6.82245 11.8269L4.27872 12.0927L4.96263 6.51219V6.51323ZM6.49948 10.6489C6.69347 10.6339 6.85625 10.5959 6.98992 10.5356C7.12306 10.4747 7.20627 10.3072 7.23956 10.0342C7.2718 9.77207 7.2406 9.62229 7.14698 9.58588C7.05337 9.54896 6.9093 9.54012 6.71427 9.5604L5.80412 9.6561L5.67202 10.7353L6.49948 10.6489ZM6.72415 8.53479C6.74211 8.53852 6.76054 8.5394 6.77876 8.53739L6.82713 8.53219C6.97587 8.51139 7.10538 8.47446 7.21459 8.42194C7.32381 8.36889 7.39246 8.22847 7.42055 7.99963C7.44499 7.79888 7.43303 7.66365 7.38414 7.59448C7.33525 7.52531 7.22811 7.49931 7.06117 7.51699L6.05376 7.62257L5.93154 8.61801L6.72415 8.53479ZM11.4632 11.3432L10.4209 11.4525L10.5468 10.7046L10.4984 10.7103C10.3897 11.0026 10.2451 11.2169 10.0662 11.3537C9.88731 11.4904 9.67719 11.5721 9.43639 11.5971C9.07961 11.6345 8.82269 11.5549 8.66667 11.3599C8.5096 11.1643 8.45811 10.8492 8.51168 10.4139L8.83674 7.76143L9.89303 7.65117L9.61894 9.88545C9.59502 10.08 9.5997 10.248 9.63298 10.3879C9.66575 10.5272 9.77549 10.5876 9.96064 10.5683C10.047 10.5616 10.131 10.5371 10.2074 10.4963C10.2838 10.4556 10.351 10.3996 10.4048 10.3317C10.515 10.1933 10.5832 10.0186 10.6097 9.8064L10.6352 9.59785L10.8864 7.54767L11.9427 7.43742L11.4632 11.3432ZM12.8045 11.2023L11.7487 11.3131L12.4321 5.73154L13.4884 5.62128L12.8045 11.2023ZM18.8499 10.5699L17.6272 10.6983L18.2414 6.41285L18.2071 6.41649L16.5288 10.8133L15.459 10.9256L14.8021 6.77379L14.7605 6.77795L14.3408 11.0432L13.1175 11.1706L13.8015 5.58956L15.7611 5.38464L16.2141 8.79848L16.2625 8.79276L17.5263 5.19949L19.5349 4.98938L18.8504 10.5704L18.8499 10.5699ZM20.5969 7.6777L19.5265 7.78951C19.5973 7.21534 19.7798 6.85908 20.0732 6.72126C20.3665 6.58292 20.7077 6.49346 21.0972 6.4529C21.5507 6.40505 21.9231 6.43521 22.2138 6.54235C22.5056 6.64949 22.6096 7.03487 22.5285 7.6985L22.2195 10.2173L21.1638 10.3275L21.2761 9.74659L21.235 9.75075C21.1809 9.96035 21.0832 10.1148 20.9412 10.2157C20.8055 10.3128 20.6513 10.3809 20.4882 10.4159C20.4317 10.4331 20.374 10.446 20.3155 10.4544C20.2611 10.4629 20.2065 10.47 20.1517 10.4757C19.8277 10.5096 19.5739 10.4539 19.3903 10.3072C19.2072 10.1621 19.1417 9.87713 19.1932 9.45222C19.2571 8.9337 19.4106 8.58004 19.6524 8.39281C19.8953 8.20506 20.2063 8.09116 20.586 8.05164L20.6452 8.0454C20.6655 8.04383 20.6858 8.04123 20.7035 8.03915C20.8465 8.02979 20.9812 8.04331 21.1071 8.07972C21.2329 8.11613 21.3172 8.22014 21.3604 8.39229L21.4025 8.37929L21.4904 7.66833C21.5133 7.47902 21.4935 7.35316 21.4301 7.29075C21.3666 7.22834 21.2537 7.20598 21.0925 7.22314C20.9396 7.23926 20.8262 7.27567 20.7534 7.33288C20.6806 7.39009 20.6276 7.50763 20.5964 7.68758L20.5969 7.67822V7.6777ZM20.2687 9.23223C20.2427 9.4439 20.2812 9.56248 20.3831 9.58745C20.4851 9.61345 20.6042 9.61865 20.7383 9.60461C20.873 9.59057 20.9958 9.55364 21.1086 9.49539C21.2205 9.43714 21.2891 9.31284 21.312 9.12353L21.3162 9.09389C21.3248 9.04617 21.326 8.9974 21.3198 8.9493C21.3166 8.91376 21.3014 8.88038 21.2766 8.85465C21.2428 8.82424 21.2018 8.80279 21.1575 8.79224C21.1076 8.78045 21.0564 8.77468 21.0051 8.77507C20.9671 8.77373 20.9291 8.77494 20.8912 8.77871L20.7841 8.79016C20.6541 8.80368 20.5407 8.83748 20.4455 8.89209C20.3493 8.94618 20.2911 9.06216 20.2687 9.24055V9.23223ZM25.559 9.78508C25.4659 10.5434 25.2745 11.0515 24.9848 11.3079C24.6951 11.5643 24.2474 11.724 23.6399 11.7869C23.4953 11.8028 23.35 11.8127 23.2046 11.8165C23.0174 11.8139 22.8436 11.7791 22.6824 11.7104C22.5212 11.6418 22.4198 11.5029 22.3771 11.2918C22.3485 11.1285 22.3459 10.9618 22.3693 10.7977C22.3719 10.7753 22.3735 10.7514 22.374 10.7269C22.3749 10.7033 22.377 10.6797 22.3803 10.6562L22.387 10.6016L22.3933 10.5475L23.4012 10.4419C23.3747 10.6536 23.4027 10.779 23.4854 10.8174C23.5671 10.8554 23.6851 10.8669 23.8375 10.8502C24.0138 10.832 24.1543 10.7852 24.2598 10.7108C24.3654 10.6365 24.432 10.4794 24.4616 10.2402L24.5708 9.34457L24.523 9.34977C24.4252 9.58016 24.2968 9.75335 24.1371 9.86933C23.9759 9.98531 23.8011 10.0529 23.6113 10.0732C23.2821 10.107 23.0122 10.0545 22.8005 9.91406C22.5888 9.77364 22.4889 9.48863 22.5004 9.058C22.5061 8.90874 22.5144 8.75791 22.5295 8.60501C22.543 8.45158 22.5602 8.29764 22.5794 8.14109C22.646 7.59448 22.7698 7.13993 22.9487 6.77691C23.1276 6.41389 23.4818 6.2043 24.0102 6.14969C24.2598 6.12368 24.4554 6.14969 24.5968 6.22874C24.7383 6.30779 24.834 6.48982 24.8865 6.77691L24.937 6.76339L24.9729 6.07428L26.0286 5.9635L25.5585 9.78612L25.559 9.78508ZM23.5978 8.38033C23.5702 8.60345 23.5764 8.77871 23.616 8.90718C23.6555 9.03564 23.7996 9.08608 24.0492 9.06008C24.3087 9.03304 24.4736 8.94098 24.5454 8.78495C24.6177 8.62841 24.6671 8.4365 24.6946 8.20766L24.7352 7.88157C24.768 7.61373 24.7685 7.40569 24.7368 7.25747C24.704 7.10976 24.5516 7.05047 24.2786 7.07804C24.0372 7.10352 23.8833 7.16645 23.8162 7.26683C23.7486 7.36773 23.6981 7.55184 23.6664 7.81968L23.6363 8.06204L23.5978 8.38033Z" fill="#BD0926"/>
<path d="M4.82588 6.3733L7.34881 6.10962C7.76956 6.07113 8.09357 6.13198 8.32085 6.29269C8.54812 6.45444 8.62614 6.82162 8.55593 7.39631C8.5164 7.7198 8.44619 8.00377 8.34529 8.24821C8.24439 8.49265 8.02024 8.66635 7.67438 8.76881L7.66918 8.81042C7.97915 8.81666 8.17626 8.91443 8.26052 9.10374C8.34529 9.29306 8.36453 9.57234 8.31929 9.94004C8.24283 10.5647 8.08837 10.9979 7.85485 11.2397C7.62133 11.4821 7.23179 11.6314 6.68518 11.688L4.14145 11.9543L4.82588 6.37226V6.3733ZM6.36273 10.508C6.55672 10.4934 6.72003 10.4554 6.85369 10.3946C6.98735 10.3337 7.07004 10.1668 7.10385 9.89323C7.13609 9.63111 7.10489 9.48185 7.01127 9.44492C6.91714 9.40851 6.77308 9.40019 6.57856 9.41996L5.66842 9.51513L5.53632 10.5948L6.36273 10.508ZM6.58793 8.39435C6.60585 8.39834 6.62432 8.39922 6.64253 8.39695L6.6909 8.39227C6.84017 8.37147 6.96863 8.33402 7.07837 8.28149C7.18758 8.22844 7.25623 8.08802 7.28432 7.8597C7.30876 7.65843 7.2968 7.52373 7.24843 7.45404C7.19955 7.38539 7.09241 7.35938 6.92546 7.37655L5.91806 7.48212L5.79636 8.47756L6.58793 8.39435ZM11.3269 11.2023L10.2847 11.3115L10.4105 10.5636L10.3622 10.5688C10.2535 10.8616 10.1089 11.0764 9.92999 11.2127C9.74712 11.3519 9.52858 11.4364 9.29965 11.4566C8.94287 11.4935 8.68647 11.415 8.52992 11.2194C8.37337 11.0244 8.32189 10.7087 8.37546 10.2734L8.70051 7.62046L9.7568 7.51073L9.48323 9.74449C9.45931 9.93952 9.46399 10.107 9.49676 10.2474C9.53004 10.3873 9.63926 10.4471 9.82493 10.4279C10.0096 10.4086 10.1578 10.3296 10.2686 10.1918C10.3793 10.0529 10.4475 9.87815 10.4735 9.66596L10.4995 9.4574L10.7502 7.40671L11.8065 7.29645L11.3269 11.2023ZM12.6682 11.0624L11.6119 11.1732L12.2959 5.59162L13.3521 5.48136L12.6682 11.0624ZM18.7137 10.4305L17.4915 10.5579L18.1052 6.27293L18.0709 6.27657L16.3931 10.6734L15.3233 10.7852L14.6659 6.63334L14.6243 6.63803L14.204 10.9027L12.9813 11.0307L13.6652 5.44963L15.6244 5.24472L16.0779 8.65855L16.1263 8.65335L17.3901 5.06009L19.3981 4.84998L18.7142 10.431L18.7137 10.4305ZM20.4607 7.53777L19.3903 7.65011C19.4605 7.07594 19.6426 6.71864 19.9369 6.58134C20.2297 6.44351 20.5709 6.35406 20.9605 6.31297C21.4145 6.26565 21.7869 6.29529 22.0776 6.40295C22.3683 6.5106 22.4734 6.89547 22.3917 7.55909L22.0833 10.0779L21.0275 10.1886L21.1394 9.60719L21.0978 9.61135C21.0442 9.82042 20.9469 9.97541 20.8039 10.0763C20.6683 10.1732 20.5143 10.2415 20.3514 10.2771C20.2942 10.2937 20.236 10.3067 20.1782 10.3155C20.1205 10.3239 20.0659 10.3311 20.0144 10.3363C19.6909 10.3702 19.4366 10.3145 19.2535 10.1684C19.0705 10.0222 19.0044 9.73773 19.0569 9.31334C19.1199 8.79429 19.2728 8.44116 19.5157 8.25341C19.758 8.06618 20.069 7.95228 20.4492 7.91223C20.4883 7.90733 20.5275 7.90317 20.5668 7.89975C20.7098 7.88987 20.844 7.90339 20.9698 7.94032C21.0957 7.97724 21.1799 8.08074 21.2231 8.25289L21.2657 8.23989L21.3531 7.52893C21.376 7.3391 21.3562 7.21324 21.2923 7.15083C21.2299 7.08842 21.117 7.06553 20.9553 7.0827C20.8023 7.09934 20.6885 7.13575 20.6162 7.19296C20.5428 7.25016 20.4903 7.36822 20.4591 7.54765L20.4607 7.53829V7.53777ZM20.1325 9.09178C20.1065 9.30398 20.1444 9.42256 20.2469 9.44752C20.3483 9.47301 20.4674 9.47821 20.6016 9.46416C20.7363 9.45012 20.8596 9.41372 20.9724 9.35547C21.0837 9.29722 21.1524 9.17292 21.1758 8.98361L21.1789 8.95396C21.1877 8.90611 21.1894 8.85722 21.1841 8.80886C21.1801 8.77357 21.1648 8.74054 21.1404 8.71472C21.1065 8.68441 21.0655 8.66297 21.0213 8.65231C20.9714 8.64049 20.9202 8.63473 20.8689 8.63515C20.8309 8.63356 20.7928 8.63478 20.755 8.63879L20.6479 8.65023C20.5293 8.66062 20.4141 8.69513 20.3093 8.75165C20.2136 8.80574 20.1548 8.92172 20.133 9.10062L20.1325 9.09178ZM25.4228 9.64567C25.3292 10.4034 25.1383 10.9121 24.8486 11.168C24.5579 11.4238 24.1101 11.584 23.5031 11.647C23.3583 11.6629 23.2129 11.6728 23.0673 11.6766C22.8806 11.674 22.7059 11.6386 22.5452 11.57C22.3844 11.5013 22.283 11.363 22.2399 11.1518C22.2263 11.0759 22.2191 10.9969 22.218 10.9147C22.217 10.8325 22.2211 10.7462 22.2315 10.6572C22.2347 10.6354 22.2362 10.6115 22.2373 10.5865C22.2383 10.5615 22.2399 10.5381 22.243 10.5158L22.2497 10.4617C22.2529 10.4419 22.2544 10.4242 22.2565 10.4071L23.2639 10.302C23.2379 10.5137 23.266 10.6385 23.3476 10.677C23.4303 10.715 23.5479 10.7264 23.7008 10.7103C23.8766 10.6916 24.0175 10.6453 24.1226 10.5704C24.2281 10.496 24.2947 10.3395 24.3249 10.0997L24.4341 9.20464L24.3857 9.20984C24.2885 9.44024 24.1595 9.61343 23.9998 9.72889C23.8386 9.84538 23.6639 9.913 23.474 9.93276C23.1448 9.96708 22.8754 9.91456 22.6637 9.77465C22.4521 9.63371 22.3517 9.34923 22.3636 8.91808C22.3688 8.76881 22.3777 8.61799 22.3922 8.46508C22.4068 8.31218 22.4235 8.15771 22.4422 8.00117C22.5087 7.45456 22.632 7 22.8114 6.63699C22.9914 6.27397 23.3445 6.06437 23.8729 6.00924C24.1226 5.98324 24.3181 6.00924 24.4596 6.0883C24.6005 6.16683 24.6973 6.3499 24.7498 6.63647L24.7992 6.62294L24.8351 5.93279L25.8914 5.82253L25.4223 9.64619L25.4228 9.64567ZM23.4621 8.24041C23.434 8.46352 23.4407 8.63931 23.4797 8.76673C23.5187 8.89415 23.6628 8.94616 23.913 8.91964C24.1725 8.89259 24.3379 8.80106 24.4097 8.64451C24.4809 8.48849 24.5308 8.29605 24.5594 8.06722L24.5995 7.74164C24.6323 7.47328 24.6322 7.26577 24.6005 7.11754C24.5688 6.96932 24.4159 6.91003 24.1418 6.93863C23.9015 6.9636 23.7476 7.02653 23.6795 7.12742C23.6124 7.2278 23.5624 7.41191 23.5302 7.67975L23.5 7.92263L23.4621 8.24041Z" fill="white"/>
</svg>
