<svg width="30" height="17" viewBox="0 0 30 17" fill="none" xmlns="http://www.w3.org/2000/svg">
<path d="M28.5609 11.971C27.7907 12.8469 26.6948 13.7101 25.243 14.5492C21.0079 16.9877 15.2136 17.0728 10.7723 16.3938C17.1826 16.4329 22.7283 14.7227 25.7861 11.971C28.1944 9.8057 29.0587 6.99418 27.5876 3.88317C30.2561 6.52672 30.8986 9.31381 28.5609 11.971Z" fill="#ED1C24"/>
<path fill-rule="evenodd" clip-rule="evenodd" d="M21.2515 6.8955L20.5639 8.90246L21.2515 8.90589L21.9392 8.90942L21.5918 6.34955L21.4427 6.34093L21.2515 6.8955ZM17.0739 11.9709L20.4421 4.50996H21.2515H23.2681L24.9803 11.9709H22.5363L22.2175 10.6262L21.2515 10.6194L19.9347 10.6079L19.3222 11.9709H17.0739Z" fill="#ED1C24"/>
<path fill-rule="evenodd" clip-rule="evenodd" d="M14.5405 11.971C14.3447 12.0167 14.1392 12.0536 13.9267 12.0793C13.1854 12.171 12.3423 12.1635 11.4051 12.1378L11.4065 11.971L11.4397 4.81562C15.221 3.37693 18.564 5.25944 16.2131 7.40536L16.2096 7.51525C18.5663 8.2917 17.6256 11.2595 14.5405 11.971ZM13.5184 8.76933C14.5608 8.44663 15.0956 8.70741 14.9882 9.35332C14.8841 9.96291 14.3506 10.2155 13.5256 10.2224L13.5184 8.76933ZM13.5147 6.05081C14.4759 5.72911 14.8925 6.1873 14.6944 6.70509C14.507 7.17697 14.1405 7.33241 13.5147 7.28772V6.05081Z" fill="#ED1C24"/>
<path d="M10.1443 11.971C8.65296 12.5053 7.47464 12.4222 6.62099 11.9721C3.5573 10.3536 4.69266 3.97668 10.5693 4.33853L10.4045 6.14366C6.40604 6.51362 6.56256 11.5472 10.4965 10.2563L10.3174 11.9067L10.1443 11.971Z" fill="#ED1C24"/>
<path d="M2.04686 11.971C2.15203 12.2892 2.28221 12.6098 2.43726 12.9343C2.11269 12.6161 1.81781 12.2949 1.55382 11.9721C-1.07867 8.75887 -0.584313 5.36265 4.72624 2.26096C8.94674 -0.20363 14.7445 -0.314321 19.1861 0.34343C8.25438 0.329676 -0.139158 5.38965 2.04686 11.971Z" fill="#ED1C24"/>
</svg>