<svg width="50" height="50" viewBox="0 0 50 50" fill="none" xmlns="http://www.w3.org/2000/svg">
<path d="M48.533 28.494L44.72 32.15L45.15 37.416C45.209 38.135 44.754 38.793 44.062 38.994L38.987 40.457L36.923 45.319C36.64 45.983 35.928 46.361 35.226 46.211L30.047 45.15L25.96 48.495C25.681 48.723 25.342 48.837 25.001 48.837C24.66 48.837 24.321 48.723 24.042 48.495L19.956 45.15L14.776 46.211C14.073 46.363 13.363 45.982 13.079 45.319L11.015 40.457L5.93999 38.994C5.24999 38.793 4.79399 38.135 4.85199 37.416L5.28199 32.15L1.46899 28.494C0.947993 27.996 0.851993 27.199 1.23699 26.592L4.06599 22.13L2.38599 17.12C2.15799 16.437 2.44399 15.688 3.06699 15.329L7.64499 12.689L8.48699 7.47499C8.60199 6.76299 9.20099 6.23199 9.91999 6.20299L15.199 5.99499L18.367 1.76799C18.801 1.19299 19.58 0.99999 20.229 1.30999L25 3.57999L29.771 1.30999C30.417 0.99899 31.2 1.19199 31.632 1.76799L34.801 5.99499L40.08 6.20299C40.799 6.23199 41.398 6.76299 41.516 7.47399L42.358 12.688L46.936 15.328C47.559 15.687 47.843 16.436 47.617 17.119L45.938 22.129L48.766 26.591C49.15 27.199 49.054 27.996 48.533 28.494Z" fill="#D03535"/>
<path d="M15.715 22.574C15.536 22.005 15.476 21.676 15.476 19.52C15.476 17.364 15.537 17.035 15.715 16.466C16.194 15.059 17.452 14.161 19.158 14.161C20.864 14.161 22.122 15.059 22.6 16.466C22.78 17.035 22.84 17.364 22.84 19.52C22.84 21.675 22.779 22.005 22.6 22.574C22.121 23.981 20.864 24.879 19.158 24.879C17.452 24.879 16.194 23.981 15.715 22.574ZM20.774 22.095C20.864 21.796 20.924 21.376 20.924 19.52C20.924 17.664 20.863 17.245 20.774 16.945C20.535 16.257 19.936 15.897 19.158 15.897C18.38 15.897 17.781 16.256 17.542 16.945C17.452 17.244 17.392 17.664 17.392 19.52C17.392 21.376 17.453 21.795 17.542 22.095C17.781 22.783 18.38 23.143 19.158 23.143C19.936 23.143 20.535 22.784 20.774 22.095ZM29.756 14.371C29.876 14.162 29.995 14.072 30.235 14.072H31.672C31.852 14.072 31.911 14.222 31.822 14.371L19.996 34.789C19.877 34.998 19.757 35.088 19.547 35.088H18.11C17.93 35.088 17.84 34.939 17.93 34.789L29.756 14.371ZM26.912 29.67C26.912 27.514 26.972 27.185 27.151 26.615C27.63 25.208 28.887 24.31 30.594 24.31C32.3 24.31 33.558 25.208 34.036 26.615C34.216 27.184 34.275 27.513 34.275 29.67C34.275 31.824 34.215 32.154 34.036 32.723C33.557 34.13 32.3 35.029 30.594 35.029C28.887 35.029 27.63 34.131 27.151 32.723C26.972 32.154 26.912 31.824 26.912 29.67ZM30.595 33.292C31.373 33.292 31.972 32.933 32.211 32.244C32.301 31.945 32.36 31.525 32.36 29.67C32.36 27.814 32.3 27.395 32.211 27.095C31.972 26.407 31.373 26.047 30.595 26.047C29.817 26.047 29.217 26.406 28.978 27.095C28.888 27.395 28.829 27.814 28.829 29.67C28.829 31.525 28.889 31.945 28.978 32.244C29.217 32.933 29.816 33.292 30.595 33.292Z" fill="white"/>
</svg>
