<svg width="30" height="30" viewBox="0 0 30 30" fill="none" xmlns="http://www.w3.org/2000/svg">
<g clip-path="url(#clip0_167_509)">
<path d="M0.25 0.25H29.75V29.75H0.25V0.25Z" fill="#0050AA"/>
<path d="M15 1.90002C7.80001 1.90002 1.95001 7.80002 1.95001 15C1.95001 22.2 7.80001 28.1 15 28.1C22.2 28.1 28.05 22.25 28.1 15.05C28.1 7.80002 22.2 1.95002 15 1.90002C15 1.95002 15 1.95002 15 1.90002Z" fill="#FFF000"/>
<path d="M14.2 15.35L11.9 13.05L9.25 15.7V16.6L9.9 15.95L11.75 17.8L11.05 18.5L11.5 18.95L15.2 15.25V14.35L14.2 15.35Z" fill="#E60A14"/>
<path d="M3.40002 12.55H7.50002V13.45H6.80002V16.3L9.20002 15V17.45H3.40002V16.55H4.10002V13.45H3.40002V12.55ZM20.75 12.55V13.45H21.45V16.55H20.75V17.45H26.55V15L24.15 16.3V13.45H24.85V12.55H20.75Z" fill="#0050AA"/>
<path d="M11.55 9.79999C12.35 9.79999 13 10.45 13 11.25C13 12.05 12.35 12.7 11.55 12.7C10.75 12.7 10.1 12.05 10.1 11.25C10.1 10.45 10.75 9.79999 11.55 9.79999Z" fill="#E60A14"/>
<path d="M15 1.04999C7.29999 1.04999 1.04999 7.29999 1.04999 15C1.04999 22.7 7.29999 28.95 15 28.95C22.7 28.95 28.95 22.7 28.95 15C28.95 7.29999 22.7 1.04999 15 1.04999ZM15 28.1C7.79999 28.1 1.94999 22.2 1.94999 15C1.94999 7.79999 7.79999 1.94999 15 1.94999C22.2 1.94999 28.1 7.79999 28.1 15C28.05 22.2 22.2 28.05 15 28.1Z" fill="#E60A14"/>
<path d="M18.45 12.55H14.55V13.45H15.25V16.55H14.55V17.45H18.45C21.35 17.45 21.4 12.55 18.45 12.55Z" fill="#0050AA"/>
<path d="M17.9 15.9H17.7V14.05H17.85C18.75 14.1 18.75 15.9 17.9 15.9Z" fill="#FFF000"/>
</g>
<defs>
<clipPath id="clip0_167_509">
<rect width="30" height="30" fill="white"/>
</clipPath>
</defs>
</svg>
