<?xml version="1.0" encoding="UTF-8" standalone="no"?>
<svg width="48" height="48" viewBox="0 0 12.7 12.7" xmlns="http://www.w3.org/2000/svg"
   xmlns:svg="http://www.w3.org/2000/svg">
   <path style="fill:#97c9d6;"
      d="M 6.3496094,0 C 2.8488549,0 -1.8039629e-8,2.8488542 0,6.3496094 7.817172e-7,9.850364 2.8488554,12.699219 6.3496094,12.699219 9.8503639,12.69922 12.699218,9.8503645 12.699219,6.3496094 12.699219,2.8488536 9.8503645,-8.4185003e-7 6.3496094,0 Z m 0,1.0566406 c 2.9297906,-7e-7 5.2929686,2.3631773 5.2929686,5.2929688 -1e-6,2.929791 -2.3631785,5.2929696 -5.2929686,5.2929686 -2.9297896,0 -5.2929681,-2.3631781 -5.2929688,-5.2929686 0,-2.929791 2.3631787,-5.2929688 5.2929688,-5.2929688 z" />
   <path style="fill:#97c9d6;"
      d="m 241.717,165.88045 c -31.4371,31.52413 -63.76964,63.76963 -95.45911,95.4591 -5.76505,5.76507 -6.16344,13.50043 -2.23453,17.42933 3.92892,3.92892 11.66429,3.53053 17.42933,-2.23453 l 87.86171,-87.8766 87.8617,87.8766 c 5.76507,5.76507 13.50041,6.16347 17.42933,2.23453 3.92901,-3.929 3.53047,-11.66434 -2.23453,-17.42933 -31.71266,-31.71126 -63.89533,-63.89533 -95.4591,-95.4591 -2.31711,-2.16635 -4.03706,-2.56226 -7.82086,-2.56226 -4.5896,0 -5.39857,1.13311 -7.37394,2.56226 z m 7.5974,49.45759 c -9.28996,-1e-5 -16.81858,7.5286 -16.81856,16.81856 -10e-6,9.28996 7.5286,16.81857 16.81856,16.81856 9.28996,2e-5 16.81857,-7.5286 16.81856,-16.81856 2e-5,-9.28997 -7.52859,-16.81858 -16.81856,-16.81856 z m 63.74368,49.398 c -2.06904,-0.69089 -3.72423,1.15962 -3.72422,3.322 v 59.52787 h -39.38731 c 0.10717,-12.28156 0.0447,-24.74934 0.0447,-37.09319 0,-5.32048 -4.95711,-9.60848 -11.11306,-9.60848 h -19.12757 c -6.15595,0 -11.11306,4.288 -11.11306,9.60848 -0.002,12.32967 -0.0185,24.82888 0.0447,37.09319 h -40.53437 v -59.52787 c 0,-1.65717 -1.01646,-2.86081 -2.48777,-2.91979 -1.00669,-0.0404 -2.23553,0.44791 -3.48587,1.69825 -1.74032,1.74031 -16.71428,16.95263 -16.71428,16.95263 v 51.00686 c 0,8.18593 6.59176,14.77769 14.77769,14.77769 48.13001,-0.0436 96.94983,0.0341 138.15352,0 8.18595,0 14.77769,-6.59176 14.77769,-14.77769 v -51.00686 l -17.86134,-17.71237 c -0.58425,-0.73058 -1.52412,-1.09852 -2.24945,-1.34072 z"
      transform="matrix(0.03312898,0,0,0.03312898,-1.909532,-2.1459401)" />
</svg>