<svg width="48" height="48" viewBox="0 0 48 48" xmlns="http://www.w3.org/2000/svg">
    <symbol id="kaufland">
        <path d="M0 0H48V48H0V0Z" fill="white" />
        <path
            d="M1.85504 46.1449H46.2398V1.85583H1.85504V46.1449ZM44.3847 44.3847H3.66267V3.66262H44.3365C44.3373 3.66262 44.3847 44.3847 44.3847 44.3847Z"
            fill="#E10915" />
        <path
            d="M25.0706 25.0233V39.1998H39.1998L25.0706 25.0233ZM8.80109 25.0707H22.9302V39.1998H8.80109V25.0707ZM25.0706 8.80115V22.9777L39.1998 8.80115H25.0706ZM8.80109 8.80115H22.9302V22.9303H8.80109V8.80115Z"
            fill="#E10915" />
    </symbol>
    <symbol id="lidl">
        <path d="M0.399994 0.400024H47.6V47.6H0.399994V0.400024Z" fill="#0050AA" />
        <path
            d="M24 3.04004C12.48 3.04004 3.12 12.48 3.12 24C3.12 35.52 12.48 44.96 24 44.96C35.52 44.96 44.88 35.6 44.96 24.08C44.96 12.48 35.52 3.12004 24 3.04004C24 3.12004 24 3.12004 24 3.04004Z"
            fill="#FFF000" />
        <path
            d="M22.72 24.56L19.04 20.88L14.8 25.12V26.56L15.84 25.52L18.8 28.48L17.68 29.6L18.4 30.32L24.32 24.4V22.96L22.72 24.56Z"
            fill="#E60A14" />
        <path
            d="M5.44 20.08H12V21.52H10.88V26.08L14.72 24V27.92H5.44V26.48H6.56V21.52H5.44V20.08ZM33.2 20.08V21.52H34.32V26.48H33.2V27.92H42.48V24L38.64 26.08V21.52H39.76V20.08H33.2Z"
            fill="#0050AA" />
        <path
            d="M18.48 15.6801C19.76 15.6801 20.8 16.7201 20.8 18.0001C20.8 19.2801 19.76 20.3201 18.48 20.3201C17.2 20.3201 16.16 19.2801 16.16 18.0001C16.16 16.7201 17.2 15.6801 18.48 15.6801Z"
            fill="#E60A14" />
        <path
            d="M24 1.68005C11.68 1.68005 1.67999 11.6801 1.67999 24.0001C1.67999 36.3201 11.68 46.3201 24 46.3201C36.32 46.3201 46.32 36.3201 46.32 24.0001C46.32 11.6801 36.32 1.68005 24 1.68005ZM24 44.9601C12.48 44.9601 3.11999 35.5201 3.11999 24.0001C3.11999 12.4801 12.48 3.12005 24 3.12005C35.52 3.12005 44.96 12.4801 44.96 24.0001C44.88 35.5201 35.52 44.8801 24 44.9601Z"
            fill="#E60A14" />
        <path d="M29.52 20.08H23.28V21.52H24.4V26.48H23.28V27.92H29.52C34.16 27.92 34.24 20.08 29.52 20.08Z"
            fill="#0050AA" />
        <path d="M28.64 25.44H28.32V22.48H28.56C30 22.56 30 25.44 28.64 25.44Z" fill="#FFF000" />
    </symbol>
    <symbol id="billa">
        <path d="M48 14H0V33.4731H48V14Z" fill="#D7182A" />
        <path
            d="M10.5631 30.2069H3.80319V17.6384H10.1698C10.1698 17.6384 13.8292 17.7832 13.9121 21.1731C13.9121 21.1731 13.9121 23.3442 12.816 23.8393C12.816 23.8393 14.3663 24.6459 14.2844 26.7751C14.2844 26.7751 14.3673 30.0831 10.5631 30.2069ZM7.66926 22.3719H9.26939C9.26939 22.3719 9.77748 22.33 9.77748 21.7101C9.77748 21.7101 9.81242 20.9864 9.30433 20.9864H7.66926V22.3719ZM9.59181 25.6381H7.66926V27.0236H9.55089C9.55089 27.0236 10.1508 26.9827 10.1508 26.3628C10.1498 26.3628 10.1907 25.6381 9.59181 25.6381Z"
            fill="#FFD400" />
        <path d="M19.0788 17.6384H15.089V30.2069H19.0788V17.6384Z" fill="#FFD400" />
        <path d="M24.2466 26.7351V17.6384H20.2577V30.2069H26.7071V26.7351H24.2466Z" fill="#FFD400" />
        <path d="M31.3987 26.7351V17.6384H27.4089V30.2069H33.8583V26.7351H31.3987Z" fill="#FFD400" />
        <path
            d="M37.6176 17.6384L34.2427 30.2069H37.6815L38.1746 28.5938H41.0574L41.5506 30.2069H44.9894L41.6124 17.6384H37.6176ZM38.9482 26.0613L39.615 23.8772L40.2828 26.0613H38.9482Z"
            fill="#FFD400" />
    </symbol>
    <symbol id="cba">
        <path
            d="M45.6975 30.1535C44.4651 31.5551 42.7118 32.9361 40.3888 34.2787C33.6127 38.1803 24.3418 38.3165 17.2357 37.2301C27.4921 37.2926 36.3653 34.5564 41.2577 30.1535C45.1111 26.6891 46.494 22.1907 44.1402 17.213C48.4098 21.4427 49.4378 25.9021 45.6975 30.1535Z"
            fill="#ED1C24" />
        <path fill-rule="evenodd" clip-rule="evenodd"
            d="M34.0023 22.0329L32.9022 25.244L34.0023 25.2495L35.1026 25.2551L34.5468 21.1593L34.3083 21.1455L34.0023 22.0329ZM27.3183 30.1536L32.7073 18.216H34.0023H37.229L39.9685 30.1536H36.058L35.5479 28.0019L34.0023 27.991L31.8955 27.9727L30.9155 30.1536H27.3183Z"
            fill="#ED1C24" />
        <path fill-rule="evenodd" clip-rule="evenodd"
            d="M23.2648 30.1535C22.9515 30.2267 22.6227 30.2857 22.2827 30.3268C21.0967 30.4736 19.7477 30.4616 18.2481 30.4205L18.2503 30.1535L18.3034 18.705C24.3536 16.4031 29.7023 19.4151 25.9409 22.8486L25.9354 23.0244C29.706 24.2667 28.201 29.0151 23.2648 30.1535ZM21.6294 25.0309C23.2972 24.5146 24.153 24.9318 23.981 25.9653C23.8146 26.9406 22.961 27.3447 21.6409 27.3559L21.6294 25.0309ZM21.6236 20.6813C23.1614 20.1666 23.828 20.8997 23.5111 21.7281C23.2111 22.4831 22.6248 22.7318 21.6236 22.6603V20.6813Z"
            fill="#ED1C24" />
        <path
            d="M16.2309 30.1536C13.8447 31.0085 11.9594 30.8754 10.5936 30.1553C5.69168 27.5658 7.50826 17.3627 16.9108 17.9417L16.6472 20.8299C10.2497 21.4218 10.5001 29.4755 16.7944 27.4101L16.5079 30.0507L16.2309 30.1536Z"
            fill="#ED1C24" />
        <path
            d="M3.27498 30.1535C3.44324 30.6627 3.65154 31.1757 3.89961 31.6949C3.3803 31.1858 2.90849 30.6719 2.48611 30.1553C-1.72587 25.0142 -0.934901 19.5803 7.56198 14.6176C14.3148 10.6742 23.5911 10.4971 30.6978 11.5495C13.207 11.5275 -0.222653 19.6235 3.27498 30.1535Z"
            fill="#ED1C24" />
    </symbol>
    <symbol id="bulmag">
        <path
            d="M41.0072 14.8127C38.217 13.2691 34.8569 12.1582 31.188 11.5408C36.7542 12.9271 41.3891 15.5733 44.0736 19.005C45.9284 21.3783 46.6923 23.9754 46.2821 26.5184C45.9093 28.83 44.6012 30.9195 42.5949 32.6587C43.4582 32.0724 44.2645 31.4063 45.0031 30.6691C47.0052 28.6461 48.0404 26.3586 47.9988 24.0536C47.9339 20.5545 45.45 17.2725 41.0072 14.8136V14.8127ZM4.03211 29.3668C2.17812 26.9952 1.41339 24.3981 1.8228 21.8551C2.12653 19.972 3.07433 18.1929 4.57051 16.6243C4.01567 17.0499 3.48971 17.5119 2.99611 18.0073C0.994822 20.0285 -0.0411855 22.3169 0.0012534 24.6228C0.0661599 28.1219 2.54925 31.4038 6.99368 33.8636C10.8773 36.0122 15.8717 37.322 21.259 37.6282C13.7972 36.7228 7.38895 33.6589 4.03211 29.3668Z"
            fill="#E1001A" />
        <path
            d="M43.6899 19.2922C43.0032 18.4242 42.2267 17.6312 41.3733 16.9265C43.1274 18.8071 44.1509 20.9723 44.3132 23.2507C44.5046 25.9476 43.4902 28.603 41.3774 30.9321C38.3285 34.2906 33.3232 36.6131 27.658 37.3745C32.0226 37.1307 36.1042 36.0697 39.3121 34.3247C43.0051 32.3185 45.3109 29.5192 45.806 26.4436C46.1946 24.0312 45.4632 21.5581 43.6899 19.2906V19.2922ZM3.79239 25.1222C3.60016 22.4252 4.61537 19.769 6.72899 17.4407C9.77544 14.0847 14.7766 11.7631 20.4376 11C16.0772 11.2446 12.0006 12.3048 8.79352 14.0481C5.10133 16.0552 2.79632 18.8545 2.30037 21.9293C1.91176 24.3416 2.64321 26.8131 4.41565 29.0806C5.10168 29.9482 5.87737 30.7409 6.72982 31.4456C4.97651 29.5649 3.95465 27.4014 3.79239 25.1238V25.1222Z"
            fill="#40A52B" />
        <path
            d="M36.9464 15.2996C33.5896 13.2034 29.1709 12.0476 24.5027 12.0476C24.0675 12.0476 23.6264 12.0576 23.1887 12.0784C17.0243 12.363 11.4331 14.6372 8.23525 18.1613C6.34048 20.2491 5.42846 22.6274 5.59988 25.0372C5.81957 28.117 7.79339 30.9712 11.1594 33.0748C14.5162 35.171 18.9357 36.326 23.6031 36.326C24.0375 36.326 24.4794 36.316 24.9162 36.296C31.0807 36.0114 36.671 33.7372 39.8697 30.2123C41.7645 28.1245 42.6773 25.747 42.5042 23.3363C42.2862 20.2575 40.3107 17.4024 36.9464 15.2996Z"
            fill="#E1001A" />
        <path
            d="M16.4334 31.1228L16.0398 31.1627C16.0565 31.0662 16.0506 31.0071 16.024 30.9855C15.9974 30.9638 15.9475 30.9555 15.8734 30.9638L15.8318 30.968C15.8293 30.9704 15.8261 30.9719 15.8226 30.9722L15.8135 30.973C15.7629 30.9784 15.7137 30.9925 15.6679 31.0146C15.6213 31.0371 15.5913 31.0878 15.578 31.1677C15.568 31.2268 15.5688 31.2709 15.5822 31.2984C15.5955 31.3258 15.6254 31.3383 15.6737 31.3375L15.7444 31.335C15.7686 31.3333 15.7935 31.3333 15.8176 31.3333L15.8268 31.3325L15.8385 31.3308C15.9932 31.3225 16.1297 31.3383 16.2487 31.3749C16.3677 31.4124 16.4043 31.563 16.3594 31.8259L16.3452 31.9083C16.3311 31.9995 16.3059 32.0886 16.2703 32.1738C16.247 32.231 16.2122 32.2828 16.168 32.326C16.1154 32.3788 16.0525 32.4201 15.9832 32.4475C15.9027 32.4785 15.8185 32.4989 15.7328 32.5083L15.6787 32.5141L15.5747 32.5224C15.3616 32.5441 15.2052 32.5316 15.1053 32.4858C15.0055 32.4384 14.9822 32.2628 15.0346 31.9566L15.429 31.9125C15.4163 31.9681 15.4163 32.0258 15.429 32.0814C15.4424 32.1213 15.4815 32.1371 15.5455 32.1313L15.7244 32.1138C15.7731 32.1111 15.8205 32.0968 15.8626 32.0722C15.9025 32.0489 15.93 31.9932 15.9441 31.9058C15.9583 31.8234 15.95 31.7768 15.92 31.7619C15.89 31.7469 15.8484 31.7419 15.7952 31.7435L15.7869 31.7444L15.7785 31.7452L15.7045 31.7469L15.6346 31.7485C15.4582 31.756 15.3234 31.7344 15.2327 31.687C15.1411 31.6404 15.1195 31.4748 15.1686 31.1918C15.1977 31.0237 15.2485 30.8923 15.3225 30.7974C15.3966 30.7025 15.5031 30.641 15.6429 30.6127L15.7802 30.5894C15.8268 30.5819 15.8709 30.5761 15.9158 30.5719C16.0947 30.5536 16.2404 30.5619 16.3502 30.5994C16.4609 30.636 16.4925 30.7899 16.4451 31.0654C16.444 31.0752 16.4423 31.0849 16.4401 31.0945L16.4351 31.112L16.4326 31.1278L16.4334 31.1228ZM18.3107 30.3414L18.1027 31.5563C18.0994 31.5813 18.0935 31.6062 18.0894 31.6279L18.0744 31.6961C18.072 31.7035 18.07 31.711 18.0686 31.7186C18.0676 31.7267 18.0654 31.7345 18.0619 31.7419L18.0528 31.7885C18.0495 31.8044 18.0459 31.8202 18.0419 31.8359C17.9862 32.0298 17.8963 32.1588 17.7723 32.2229C17.6531 32.2857 17.5228 32.325 17.3887 32.3385L17.333 32.3443C17.1108 32.3668 16.9444 32.3535 16.8337 32.3027C16.723 32.252 16.6964 32.0639 16.7513 31.7369L16.9677 30.4787L17.3821 30.4354L17.1665 31.6911C17.1474 31.8043 17.1566 31.8717 17.1948 31.8908C17.2331 31.91 17.2922 31.9166 17.3704 31.9083C17.4453 31.9059 17.5185 31.8859 17.5843 31.8501C17.63 31.8218 17.6633 31.7419 17.6858 31.6137L17.8963 30.383L18.3107 30.3414ZM18.7459 30.2973L19.3509 30.2366C19.5806 30.2157 19.7495 30.2332 19.8568 30.2923C19.9642 30.3506 19.99 30.5478 19.9326 30.8806C19.9273 30.908 19.9226 30.9355 19.9184 30.963C19.9134 30.9905 19.9084 31.0179 19.9018 31.0462C19.8909 31.102 19.8768 31.1569 19.8585 31.211C19.8402 31.2651 19.8169 31.3208 19.7869 31.3716C19.7449 31.4541 19.6783 31.5215 19.5964 31.5646C19.524 31.6005 19.447 31.6263 19.3675 31.6412C19.3467 31.643 19.3258 31.6455 19.3051 31.6487C19.2843 31.652 19.2635 31.6553 19.2435 31.657L19.2402 31.6578H19.2377L19.2011 31.6612L19.1637 31.6653L18.9157 31.6903L18.8308 32.1813L18.4164 32.2237L18.7459 30.2973ZM19.251 31.2168C19.3384 31.2035 19.3967 31.1844 19.4275 31.1561C19.4582 31.1278 19.4815 31.0654 19.4982 30.9655L19.5032 30.9397C19.5212 30.8637 19.5249 30.7849 19.514 30.7075C19.5023 30.6634 19.4474 30.6468 19.3501 30.6568L19.0863 30.6834L18.9897 31.2434L19.251 31.2168ZM20.6881 30.8573L21.3464 30.7908L21.2848 31.1486L20.6266 31.2151L20.5616 31.5879L21.2798 31.5155L21.2082 31.9391L20.0757 32.0539L20.4052 30.1292L21.5253 30.0152L21.4512 30.4404L20.7472 30.5112L20.6881 30.8573ZM21.9347 29.9736L22.7127 29.8945C22.9099 29.8762 23.0431 29.9037 23.1146 29.9778C23.1854 30.0502 23.1987 30.2166 23.1546 30.4737C23.1363 30.5954 23.1033 30.7144 23.0564 30.8282C23.0156 30.9206 22.9191 30.993 22.7701 31.0462L22.7676 31.0637C22.8617 31.062 22.9257 31.0903 22.9607 31.1502C22.9956 31.2101 23.0023 31.2992 22.9815 31.4165L22.9224 31.766L22.5014 31.8076L22.5455 31.5505C22.5589 31.4911 22.5574 31.4294 22.5413 31.3708C22.5255 31.3275 22.4831 31.31 22.4148 31.3175L22.1069 31.3483L22.0196 31.8567L21.6043 31.8992L21.9347 29.9736ZM22.5105 30.8723C22.5854 30.8681 22.6353 30.8423 22.6595 30.7957C22.6883 30.735 22.7074 30.6702 22.716 30.6035C22.7318 30.5365 22.7352 30.4671 22.726 30.3988C22.7169 30.3555 22.6678 30.3397 22.5796 30.3481L22.2717 30.3763L22.1802 30.9073L22.5105 30.8723ZM25.2424 31.5297L24.8347 31.5721L25.1176 30.0943L25.1059 30.0951L24.4685 31.6087L24.1115 31.6454L23.9701 30.2099L23.9559 30.2116L23.7387 31.6828L23.331 31.7244L23.6605 29.7997L24.3137 29.7323L24.4011 30.9114L24.4169 30.9097L24.9037 29.6724L25.5728 29.605L25.2424 31.5297ZM26.0978 31.1178L25.9672 31.4565L25.5353 31.5006L26.3283 29.5284L26.9566 29.4652L27.0972 31.3425L26.6753 31.3849L26.6504 31.0612L26.0978 31.1178ZM26.583 29.8796L26.2518 30.735L26.6362 30.6967L26.583 29.8796ZM27.7213 29.3869L28.5002 29.3071C28.6974 29.2887 28.8314 29.317 28.9021 29.3894C28.9729 29.4635 28.987 29.6283 28.9429 29.8862C28.9179 30.031 28.8855 30.1483 28.8447 30.2415C28.8039 30.3322 28.7083 30.4055 28.5576 30.4596L28.5543 30.477C28.6483 30.4745 28.7132 30.5037 28.7474 30.5636C28.7815 30.6227 28.789 30.7117 28.769 30.829L28.7091 31.1785L28.2872 31.2218L28.3313 30.9647C28.3467 30.9052 28.3449 30.8426 28.3263 30.7841C28.3105 30.7425 28.2689 30.7233 28.2015 30.7308L27.8919 30.7616L27.8054 31.2692L27.3902 31.3117L27.7213 29.3869ZM28.298 30.2865C28.3729 30.2798 28.4228 30.2549 28.447 30.2083C28.4751 30.1473 28.4939 30.0825 28.5027 30.016C28.5194 29.9228 28.5227 29.8538 28.5135 29.8113C28.5044 29.7689 28.4553 29.7514 28.3671 29.7606L28.0592 29.7889L27.9693 30.3198L28.298 30.2865ZM29.7376 29.8995L29.8624 29.8871L30.3858 29.1157L30.8843 29.0657L30.1778 30.0668L30.5989 30.9863L30.0896 31.0379L29.7892 30.3223L29.6644 30.3356L29.5337 31.0936L29.1193 31.1369L29.4489 29.2114L29.8633 29.1698L29.7376 29.8995ZM31.5076 29.7597L32.1658 29.6923L32.1042 30.0502L31.446 30.1176L31.3827 30.4887L32.1 30.4163L32.0276 30.8407L30.8951 30.9563L31.2246 29.0308L32.3438 28.9176L32.2706 29.342L31.5666 29.4127L31.5076 29.7597ZM33.1227 30.7308L32.7092 30.7724L32.963 29.2921L32.571 29.3329L32.6467 28.8877L33.8708 28.7637L33.7951 29.208L33.3782 29.2505L33.1227 30.7308Z"
            fill="#BD0926" />
        <path
            d="M16.3536 31.0178L15.96 31.0586C15.9766 30.9629 15.9708 30.9022 15.9442 30.8814C15.9176 30.8597 15.8676 30.8514 15.7936 30.8606L15.752 30.8647C15.7492 30.8672 15.7457 30.8687 15.742 30.8689L15.7328 30.8697C15.6812 30.8755 15.633 30.888 15.5864 30.9105C15.5398 30.933 15.5098 30.9846 15.4965 31.0644C15.4865 31.1235 15.4873 31.1668 15.4998 31.1934C15.5123 31.2209 15.5431 31.2334 15.5922 31.2325L15.6629 31.2309L15.7353 31.2292L15.7453 31.2275L15.757 31.2267C15.9117 31.2184 16.0482 31.2334 16.1672 31.2708C16.2862 31.3074 16.3228 31.4589 16.2779 31.7218L16.2637 31.8042C16.2589 31.8333 16.2528 31.8622 16.2454 31.8907C16.2315 31.9517 16.2122 32.0112 16.188 32.0688C16.1646 32.126 16.1298 32.1778 16.0856 32.2211C16.0332 32.2743 15.9703 32.3159 15.9009 32.3434C15.8202 32.3739 15.7361 32.3943 15.6504 32.4042L15.5964 32.41L15.494 32.4208C15.281 32.4425 15.1245 32.43 15.0247 32.3834C14.9248 32.3368 14.9015 32.1595 14.9539 31.8541L15.3484 31.81C15.3359 31.8841 15.3359 31.9398 15.3484 31.9798C15.3609 32.0197 15.4 32.0355 15.4649 32.0289L15.643 32.0114C15.6918 32.0087 15.7392 31.9942 15.7811 31.969C15.821 31.9457 15.8485 31.8899 15.8635 31.8025C15.8776 31.721 15.8693 31.6736 15.8393 31.6594C15.8094 31.6453 15.7669 31.6394 15.7145 31.6411H15.707L15.6987 31.6419L15.6238 31.6436C15.6005 31.6453 15.5772 31.6453 15.5547 31.6453C15.3783 31.6519 15.2435 31.6311 15.1528 31.5845C15.0613 31.5363 15.0397 31.3715 15.0887 31.0886C15.1179 30.9205 15.1686 30.789 15.2427 30.6933C15.3237 30.5954 15.4376 30.5303 15.5631 30.5102C15.6088 30.5011 15.6546 30.4936 15.7004 30.4861C15.7455 30.4779 15.7911 30.4721 15.8368 30.4686C16.0157 30.4512 16.1605 30.4586 16.2712 30.4953C16.3819 30.5319 16.4127 30.6866 16.3661 30.9629L16.3636 30.9787L16.3611 30.9912L16.3561 31.0079C16.3544 31.0128 16.3544 31.0187 16.3536 31.0245V31.0178ZM18.2309 30.239L18.0229 31.453L18.0095 31.5254C18.0054 31.5479 17.9996 31.5712 17.9946 31.592C17.9923 31.6 17.9904 31.608 17.9887 31.6161C17.9879 31.6236 17.9854 31.6311 17.9829 31.6386L17.9738 31.6852C17.9706 31.7011 17.9669 31.7169 17.9629 31.7326C17.9072 31.9265 17.8173 32.0572 17.6933 32.1204C17.5739 32.1829 17.4438 32.2221 17.3097 32.2361L17.254 32.2419C17.0318 32.2644 16.8654 32.2511 16.7547 32.2003C16.644 32.1495 16.6165 31.9615 16.6731 31.6328L16.8887 30.3754L17.3031 30.333L17.0884 31.5887C17.0692 31.7019 17.0784 31.7693 17.1158 31.7876C17.1716 31.8097 17.2324 31.8157 17.2914 31.805C17.3888 31.7951 17.4603 31.7759 17.5053 31.7468C17.5502 31.7177 17.5843 31.6386 17.6068 31.5096L17.8165 30.2797L18.2309 30.239ZM18.6661 30.1932L19.2711 30.1324C19.5007 30.1116 19.6697 30.1291 19.777 30.189C19.8843 30.2481 19.9093 30.4445 19.8519 30.7774L19.8377 30.8597C19.8328 30.8872 19.8278 30.9147 19.8211 30.9421C19.8103 30.9979 19.7961 31.0536 19.7778 31.1085C19.7595 31.1635 19.7362 31.2176 19.7063 31.2683C19.6639 31.3506 19.5974 31.418 19.5157 31.4614C19.4245 31.5068 19.3258 31.5353 19.2245 31.5454L19.1629 31.5529L19.1596 31.5537H19.1562C19.1441 31.556 19.1319 31.5574 19.1196 31.5579C19.1075 31.5597 19.0952 31.5611 19.083 31.5621L18.8359 31.587L18.751 32.078L18.3366 32.1204L18.6661 30.1932ZM19.1712 31.1135C19.2586 31.1002 19.3177 31.0802 19.3484 31.0528C19.3792 31.0253 19.4025 30.9621 19.4192 30.8622L19.4242 30.8364C19.4422 30.7604 19.4459 30.6817 19.435 30.6043C19.4233 30.5602 19.3684 30.5444 19.2719 30.5535L19.0081 30.5801L18.9124 31.1402L19.1712 31.1135ZM20.6083 30.7541L21.2665 30.6875L21.2058 31.0453L20.5476 31.1127L20.4835 31.4847L21.2016 31.4114L21.1292 31.8367L19.9967 31.9507L20.3262 30.0259L21.4454 29.9128L21.3722 30.338L20.6682 30.4087L20.6083 30.7541ZM21.8548 29.8703L22.6337 29.7904C22.8309 29.773 22.9641 29.8013 23.0356 29.8737C23.1064 29.9469 23.1197 30.1125 23.0756 30.3704C23.0506 30.5152 23.0182 30.6326 22.9774 30.7249C22.9366 30.8173 22.8409 30.8897 22.6903 30.9429L22.6878 30.9604C22.7818 30.9579 22.8467 30.987 22.8809 31.047C22.9158 31.1069 22.9225 31.1959 22.9017 31.3124L22.8426 31.6627L22.4207 31.7052L22.4656 31.4481C22.4793 31.3887 22.4776 31.3268 22.4606 31.2683C22.444 31.2259 22.4016 31.2076 22.3341 31.2151L22.0263 31.2458L21.9397 31.7534L21.5245 31.7967L21.8548 29.8703ZM22.4307 30.7699C22.5056 30.764 22.5555 30.7382 22.5796 30.6925C22.6076 30.6314 22.6266 30.5667 22.6362 30.5003C22.652 30.4332 22.6554 30.3638 22.6462 30.2955C22.6362 30.2514 22.588 30.2365 22.4997 30.2448L22.191 30.2722L22.1003 30.804L22.4307 30.7699ZM25.1617 31.4272L24.7548 31.468L25.0369 29.991L25.0253 29.9926L24.3887 31.5055L24.0317 31.5413L23.8902 30.1067L23.8761 30.1083L23.6589 31.5804L23.2503 31.6211L23.5807 29.6964L24.2339 29.6298L24.3205 30.8098L24.3363 30.8081L24.8214 29.5699L25.4904 29.5025L25.1617 31.4272ZM26.0188 31.0128L25.8874 31.3524L25.4572 31.3973L26.2493 29.4243L26.8776 29.3619L27.0182 31.2384L26.5963 31.2816L26.5722 30.9579L26.0188 31.0128ZM26.5031 29.7763L26.1703 30.6326L26.5556 30.5934L26.5031 29.7763ZM27.6415 29.2828L28.4204 29.2038C28.6168 29.1863 28.7507 29.2129 28.8223 29.2862C28.893 29.3602 28.9072 29.525 28.8631 29.783C28.8381 29.9277 28.8057 30.0451 28.7649 30.1383C28.7233 30.2298 28.6284 30.303 28.4778 30.3555L28.4745 30.3729C28.5685 30.3713 28.6334 30.4004 28.6675 30.4603C28.7016 30.5194 28.7091 30.6093 28.6892 30.7258L28.6284 31.0753L28.2074 31.1177L28.2515 30.8614C28.2664 30.8022 28.2647 30.74 28.2465 30.6817C28.2307 30.6384 28.1891 30.6209 28.1208 30.6276L27.8121 30.6592L27.7256 31.1668L27.3111 31.2084L27.6415 29.2828ZM28.2182 30.1832C28.2931 30.1774 28.3422 30.1516 28.3671 30.105C28.3952 30.044 28.4143 29.9792 28.4237 29.9128C28.4382 29.8455 28.4416 29.7764 28.4337 29.7081C28.4237 29.6648 28.3763 29.6481 28.2872 29.6565L27.9794 29.6856L27.8895 30.2173L28.2182 30.1832ZM29.6578 29.7963L29.7826 29.7838L30.306 29.0124L30.8045 28.9625L30.098 29.9635L30.519 30.8822L30.0098 30.9338L29.7085 30.219L29.5829 30.2315L29.4539 30.9904L29.0395 31.0328L29.369 29.1081L29.7834 29.0665L29.6578 29.7963ZM31.4277 29.6565L32.0859 29.5891L32.0244 29.9469L31.367 30.0135L31.3029 30.3862L32.0202 30.313L31.9486 30.7374L30.8161 30.8531L31.1465 28.9283L32.2648 28.8143L32.1916 29.2396L31.4876 29.3103L31.4277 29.6565ZM33.0429 30.6267L32.6293 30.6683L32.8831 29.188L32.4912 29.2279L32.5669 28.7836L33.791 28.6604L33.7144 29.1039L33.2984 29.1472L33.0429 30.6267Z"
            fill="white" />
        <path
            d="M41.0688 24.87C40.919 26.0841 40.6136 26.8971 40.1502 27.3065C39.6858 27.7167 38.9693 27.9722 37.9982 28.0737C37.7667 28.0971 37.5344 28.1127 37.3018 28.1203C37.0022 28.117 36.7234 28.0604 36.4655 27.9506C36.2075 27.8407 36.0461 27.6185 35.977 27.2807C35.9551 27.1553 35.9432 27.0285 35.9412 26.9012C35.94 26.7636 35.9481 26.6259 35.9653 26.4893C35.9687 26.4536 35.972 26.4169 35.9737 26.377C35.9753 26.3371 35.977 26.2988 35.982 26.263L35.9928 26.1765L36.0036 26.0891L37.6146 25.9202C37.5747 26.2588 37.6196 26.4594 37.7494 26.521C37.8809 26.5817 38.0698 26.6 38.3145 26.5734C38.5957 26.5443 38.8204 26.4702 38.9893 26.3504C39.1574 26.2314 39.2648 25.9809 39.3122 25.5973L39.4886 24.1652L39.4095 24.1727C39.2548 24.5421 39.0484 24.8184 38.7921 25.004C38.5459 25.186 38.2554 25.2987 37.9508 25.3302C37.4249 25.3843 36.9939 25.301 36.6544 25.0755C36.3165 24.8509 36.1551 24.3948 36.175 23.7058C36.1825 23.467 36.1975 23.2257 36.2208 22.9811C36.2441 22.7364 36.2707 22.4893 36.3007 22.2388C36.4089 21.365 36.6044 20.6378 36.8923 20.0561C37.1794 19.4753 37.7444 19.1407 38.5899 19.0517C38.9893 19.0101 39.303 19.0517 39.5277 19.179C39.7549 19.3047 39.9088 19.5959 39.992 20.0544L40.0719 20.0328L40.1302 18.9302L41.8194 18.7546L41.068 24.8717L41.0688 24.87ZM37.9308 22.6216C37.8859 22.9786 37.8967 23.259 37.9591 23.4637C38.0215 23.6684 38.2537 23.7491 38.6523 23.7075C39.0675 23.6642 39.333 23.5178 39.4478 23.2681C39.5627 23.0185 39.6409 22.7098 39.6866 22.3445L39.7499 21.8227C39.8023 21.3933 39.8031 21.0613 39.7532 20.825C39.7008 20.587 39.4578 20.4921 39.0201 20.5379C38.6332 20.5778 38.3877 20.6785 38.2795 20.84C38.1713 21.0014 38.0923 21.2951 38.0399 21.7237L37.9916 22.1115L37.9308 22.6216ZM7.20676 21.9442L11.2434 20.1818C11.9166 20.1202 12.4351 20.2184 12.7987 20.4755C13.1623 20.7326 13.2872 21.3201 13.1748 22.2396C13.1116 22.758 12.9993 23.2107 12.8378 23.6027C12.6764 23.9946 12.3186 24.2717 11.7644 24.4348L11.756 24.5014C12.2528 24.5113 12.5682 24.6678 12.703 24.9699C12.8378 25.2736 12.8694 25.7188 12.797 26.3071C12.6747 27.3065 12.4267 28.0005 12.0531 28.3874C11.6803 28.7752 11.0562 29.014 10.1816 29.1047L6.1125 29.5308L7.20676 21.9425V21.9442ZM9.66655 27.2208C9.97694 27.1975 10.2382 27.1359 10.4513 27.0394C10.6643 26.9428 10.7983 26.6749 10.8507 26.238C10.9023 25.8186 10.8532 25.579 10.7026 25.5199C10.5519 25.4608 10.3223 25.4475 10.0102 25.48L8.55399 25.6331L8.34262 27.3597L9.66655 27.2208ZM10.026 23.839C10.0546 23.8443 10.0837 23.8454 10.1126 23.8423L10.1908 23.8348C10.4288 23.8007 10.6352 23.7408 10.8107 23.6567C10.9855 23.5719 11.0953 23.3464 11.1403 22.9819C11.1802 22.6607 11.1602 22.4443 11.0828 22.3328C11.0046 22.2221 10.8332 22.1814 10.5661 22.2088L8.95424 22.3778L8.75952 23.9696L10.026 23.839Z"
            fill="#E1001A" />
        <path
            d="M7.94074 20.2626L11.9774 19.8407C12.6506 19.7783 13.169 19.8765 13.5327 20.1336C13.8972 20.3916 14.022 20.9791 13.9096 21.8978C13.8464 22.4154 13.7332 22.8689 13.5718 23.2608C13.4104 23.6527 13.0525 23.9298 12.4983 24.0929L12.49 24.1603C12.9868 24.1703 13.3014 24.3259 13.437 24.6288C13.571 24.9317 13.6026 25.3778 13.531 25.9669C13.4087 26.9663 13.1607 27.6603 12.7879 28.0472C12.4143 28.435 11.7902 28.6738 10.9165 28.7645L6.84648 29.1898L7.94074 20.261V20.2626ZM10.3997 26.8798C10.7101 26.8556 10.9705 26.7949 11.1844 26.6983C11.3974 26.601 11.5306 26.333 11.5838 25.8962C11.6354 25.4768 11.5855 25.2371 11.4357 25.1789C11.2859 25.1198 11.0554 25.1056 10.7434 25.1381L9.28713 25.2912L9.07577 27.0179L10.3997 26.8798ZM10.7592 23.4971C10.7879 23.5031 10.8174 23.5045 10.8466 23.5013L10.9239 23.493C11.1619 23.4597 11.3691 23.4006 11.5439 23.3166C11.7186 23.2317 11.8285 23.007 11.8734 22.6409C11.9125 22.3197 11.8934 22.1033 11.8152 21.9926C11.7369 21.882 11.5655 21.8403 11.2984 21.8686L9.68656 22.0376L9.49101 23.6303L10.7592 23.4971ZM18.3416 27.9907L16.674 28.1654L16.8754 26.9688L16.798 26.9779C16.6241 27.4456 16.3927 27.7884 16.1065 28.0073C15.8202 28.2261 15.484 28.3568 15.0988 28.3967C14.5279 28.4567 14.1168 28.3293 13.8672 28.0173C13.6159 27.7044 13.5335 27.2001 13.6192 26.5036L14.1393 22.2597L15.8294 22.0833L15.3908 25.6582C15.3526 25.9694 15.3601 26.2382 15.4133 26.462C15.4657 26.685 15.6413 26.7816 15.9376 26.7508C16.0757 26.74 16.2101 26.7007 16.3324 26.6356C16.4547 26.5704 16.5622 26.4808 16.6482 26.3722C16.8246 26.1508 16.9336 25.8712 16.9761 25.5317L17.0168 25.198L17.4188 21.9177L19.1088 21.7413L18.3416 27.9907ZM20.4877 27.7651L18.7984 27.9424L19.8919 19.0119L21.5819 18.8355L20.4877 27.7651ZM30.1604 26.7533L28.2041 26.9588L29.1868 20.102L29.1319 20.1078L26.4466 27.1427L24.7349 27.3225L23.6839 20.6795L23.6173 20.6862L22.9458 27.5105L20.9886 27.7144L22.0829 18.7847L25.2184 18.4569L25.9431 23.919L26.0205 23.9099L28.0426 18.1606L31.2563 17.8245L30.1612 26.7541L30.1604 26.7533ZM32.9555 22.1258L31.243 22.3047C31.3562 21.386 31.6483 20.816 32.1176 20.5955C32.5869 20.3741 33.1328 20.231 33.7561 20.1661C34.4817 20.0895 35.0775 20.1378 35.5427 20.3092C36.0095 20.4806 36.1759 21.0972 36.0461 22.1591L35.5518 26.1891L33.8626 26.3655L34.0423 25.436L33.9766 25.4427C33.89 25.778 33.7336 26.0252 33.5064 26.1866C33.2893 26.3419 33.0426 26.4509 32.7816 26.507C32.6912 26.5345 32.5989 26.555 32.5054 26.5685C32.4183 26.582 32.3309 26.5934 32.2432 26.6027C31.7248 26.6567 31.3187 26.5677 31.025 26.333C30.7321 26.1009 30.6272 25.6449 30.7096 24.965C30.812 24.1354 31.0574 23.5695 31.4444 23.27C31.833 22.9696 32.3306 22.7873 32.9381 22.7241L33.0329 22.7141C33.0654 22.7116 33.0978 22.7074 33.1261 22.7041C33.355 22.6891 33.5705 22.7108 33.7719 22.769C33.9732 22.8273 34.1081 22.9937 34.1771 23.2691L34.2445 23.2483L34.3852 22.1108C34.4218 21.8079 34.3901 21.6065 34.2886 21.5067C34.1871 21.4068 34.0065 21.371 33.7486 21.3985C33.5039 21.4243 33.3225 21.4825 33.206 21.5741C33.0895 21.6656 33.0046 21.8537 32.9547 22.1416L32.9555 22.1266V22.1258ZM32.4305 24.613C32.3889 24.9517 32.4504 25.1414 32.6135 25.1814C32.7766 25.223 32.9672 25.2313 33.1819 25.2088C33.3974 25.1864 33.5938 25.1273 33.7744 25.0341C33.9533 24.9409 34.0631 24.742 34.0997 24.4391L34.1064 24.3917C34.1202 24.3153 34.1222 24.2373 34.1122 24.1603C34.1071 24.1035 34.0827 24.0501 34.0431 24.0089C33.9889 23.9602 33.9234 23.9259 33.8526 23.909C33.7727 23.8902 33.6908 23.8809 33.6088 23.8816C33.548 23.8794 33.4871 23.8814 33.4265 23.8874L33.2551 23.9057C33.0471 23.9273 32.8657 23.9814 32.7134 24.0688C32.5594 24.1553 32.4662 24.3409 32.4305 24.6263V24.613ZM40.8949 25.4976C40.746 26.7108 40.4398 27.5238 39.9763 27.9341C39.5128 28.3443 38.7963 28.5998 37.8244 28.7005C37.593 28.726 37.3606 28.7418 37.1279 28.7479C36.8283 28.7437 36.5504 28.688 36.2924 28.5781C36.0344 28.4683 35.8722 28.2461 35.8039 27.9083C35.7582 27.6471 35.754 27.3803 35.7915 27.1177C35.7956 27.082 35.7981 27.0437 35.799 27.0046C35.8004 26.9667 35.8037 26.9289 35.8089 26.8914L35.8198 26.804L35.8297 26.7175L37.4424 26.5486C37.4 26.8872 37.4449 27.0878 37.5772 27.1494C37.7079 27.2101 37.8968 27.2284 38.1406 27.2018C38.4227 27.1727 38.6473 27.0978 38.8163 26.9788C38.9852 26.8598 39.0917 26.6085 39.1391 26.2257L39.3139 24.7928L39.2373 24.8011C39.0809 25.1697 38.8754 25.4468 38.6199 25.6324C38.3619 25.818 38.0823 25.9261 37.7786 25.9586C37.2519 26.0127 36.82 25.9286 36.4813 25.7039C36.1426 25.4793 35.9829 25.0233 36.0012 24.3343C36.0103 24.0954 36.0236 23.8541 36.0478 23.6095C36.0694 23.364 36.0969 23.1177 36.1276 22.8672C36.2342 21.9926 36.4322 21.2653 36.7185 20.6845C37.0047 20.1037 37.5714 19.7683 38.4168 19.681C38.8163 19.6393 39.1292 19.681 39.3555 19.8074C39.5818 19.9339 39.735 20.2252 39.819 20.6845L39.8997 20.6629L39.9571 19.5603L41.6464 19.3831L40.8941 25.4992L40.8949 25.4976ZM37.757 23.25C37.7129 23.607 37.7228 23.8874 37.7861 24.0929C37.8493 24.2985 38.0798 24.3792 38.4793 24.3376C38.8945 24.2943 39.1583 24.147 39.2731 23.8974C39.3888 23.6469 39.4678 23.3399 39.5119 22.9737L39.5768 22.452C39.6293 22.0234 39.6301 21.6906 39.5793 21.4534C39.5269 21.2171 39.2831 21.1222 38.8462 21.1663C38.4601 21.2071 38.2138 21.3078 38.1065 21.4684C37.9983 21.6298 37.9176 21.9244 37.8668 22.3529L37.8185 22.7407L37.757 23.25Z"
            fill="#BD0926" />
        <path
            d="M7.72184 20.0386L11.7585 19.6167C12.4317 19.5552 12.9501 19.6525 13.3138 19.9097C13.6774 20.1685 13.8023 20.7559 13.6899 21.6755C13.6267 22.193 13.5143 22.6474 13.3529 23.0385C13.1915 23.4296 12.8328 23.7075 12.2794 23.8715L12.2711 23.938C12.7671 23.948 13.0825 24.1045 13.2173 24.4073C13.3529 24.7102 13.3837 25.1571 13.3113 25.7454C13.189 26.7448 12.9418 27.438 12.5682 27.8249C12.1946 28.2127 11.5713 28.4515 10.6967 28.5422L6.62675 28.9683L7.72184 20.037V20.0386ZM10.1808 26.6541C10.4912 26.6308 10.7525 26.5701 10.9663 26.4727C11.1802 26.3753 11.3125 26.1082 11.3666 25.6705C11.4182 25.2511 11.3683 25.0123 11.2185 24.9532C11.0679 24.895 10.8374 24.8817 10.5261 24.9133L9.0699 25.0656L8.85854 26.7931L10.1808 26.6541ZM10.5411 23.2723C10.5698 23.2787 10.5993 23.2801 10.6285 23.2765L10.7059 23.269C10.9447 23.2357 11.1502 23.1758 11.3258 23.0917C11.5006 23.0069 11.6104 22.7822 11.6553 22.4169C11.6945 22.0948 11.6753 21.8793 11.5979 21.7678C11.5197 21.658 11.3483 21.6164 11.0812 21.6438L9.46933 21.8128L9.27461 23.4055L10.5411 23.2723ZM18.1235 27.765L16.4559 27.9398L16.6573 26.7432L16.5799 26.7515C16.406 27.22 16.1747 27.5636 15.8884 27.7817C15.5958 28.0044 15.2462 28.1397 14.8799 28.1719C14.309 28.231 13.8988 28.1054 13.6483 27.7925C13.3978 27.4804 13.3155 26.9753 13.4012 26.2788L13.9212 22.0341L15.6113 21.8585L15.1736 25.4325C15.1353 25.7446 15.1428 26.0125 15.1952 26.2372C15.2485 26.4611 15.4233 26.5568 15.7203 26.526C16.0157 26.4952 16.2529 26.3687 16.4301 26.1482C16.6074 25.926 16.7164 25.6464 16.758 25.3069L16.7996 24.9732L17.2007 21.6921L18.8908 21.5157L18.1235 27.765ZM20.2696 27.5412L18.5795 27.7184L19.6738 18.7879L21.3639 18.6115L20.2696 27.5412ZM29.9423 26.5301L27.9868 26.734L28.9687 19.878L28.9138 19.8839L26.2294 26.9187L24.5177 27.0976L23.4658 20.4547L23.3993 20.4622L22.7269 27.2857L20.7706 27.4904L21.8648 18.5608L24.9995 18.2329L25.7251 23.695L25.8025 23.6867L27.8246 17.9375L31.0374 17.6013L29.9432 26.531L29.9423 26.5301ZM32.7375 21.9018L31.025 22.0815C31.1373 21.1629 31.4285 20.5912 31.8995 20.3715C32.368 20.151 32.9139 20.0079 33.5372 19.9421C34.2636 19.8664 34.8594 19.9138 35.3246 20.0861C35.7898 20.2583 35.9578 20.8741 35.8272 21.9359L35.3337 25.9659L33.6445 26.1432L33.8234 25.2129L33.7568 25.2195C33.6711 25.554 33.5155 25.802 33.2867 25.9634C33.0697 26.1185 32.8233 26.2278 32.5627 26.2846C32.4712 26.3113 32.378 26.3321 32.2856 26.3462C32.1933 26.3595 32.1059 26.3712 32.0235 26.3795C31.5059 26.4336 31.099 26.3446 30.8061 26.1107C30.5132 25.8769 30.4075 25.4217 30.4916 24.7427C30.5922 23.9122 30.8369 23.3472 31.2255 23.0468C31.6133 22.7472 32.1109 22.565 32.7192 22.5009C32.7817 22.4931 32.8444 22.4864 32.9072 22.481C33.1361 22.4651 33.3508 22.4868 33.5521 22.5459C33.7535 22.6049 33.8883 22.7705 33.9574 23.046L34.0256 23.0252L34.1654 21.8876C34.202 21.5839 34.1704 21.3825 34.0681 21.2827C33.9682 21.1828 33.7876 21.1462 33.5288 21.1737C33.2842 21.2003 33.102 21.2586 32.9863 21.3501C32.869 21.4416 32.7849 21.6305 32.735 21.9176L32.7375 21.9026V21.9018ZM32.2124 24.3882C32.1708 24.7277 32.2315 24.9174 32.3955 24.9574C32.5577 24.9982 32.7483 25.0065 32.963 24.984C33.1785 24.9616 33.3757 24.9033 33.5563 24.8101C33.7344 24.7169 33.8442 24.518 33.8817 24.2151L33.8867 24.1677C33.9007 24.0911 33.9035 24.0129 33.895 23.9355C33.8886 23.8791 33.8641 23.8262 33.8251 23.7849C33.7708 23.7364 33.7053 23.7021 33.6345 23.6851C33.5546 23.6661 33.4728 23.6569 33.3907 23.6576C33.3299 23.6551 33.269 23.657 33.2085 23.6634L33.0371 23.6817C32.8473 23.6983 32.663 23.7536 32.4953 23.844C32.3422 23.9305 32.2482 24.1161 32.2132 24.4024L32.2124 24.3882ZM40.6769 25.2744C40.5271 26.4869 40.2217 27.3007 39.7582 27.7101C39.293 28.1195 38.5766 28.3758 37.6055 28.4765C37.3738 28.502 37.1411 28.5178 36.9081 28.5239C36.6094 28.5198 36.3298 28.4632 36.0727 28.3533C35.8155 28.2435 35.6533 28.0221 35.5842 27.6843C35.5626 27.5628 35.5509 27.4363 35.5493 27.3048C35.5476 27.1734 35.5543 27.0352 35.5709 26.8929C35.5759 26.858 35.5784 26.8197 35.5801 26.7798C35.5817 26.7398 35.5842 26.7024 35.5892 26.6666L35.6 26.5801C35.605 26.5484 35.6075 26.5201 35.6108 26.4927L37.2227 26.3246C37.1811 26.6633 37.226 26.863 37.3567 26.9246C37.489 26.9853 37.677 27.0036 37.9217 26.9778C38.2029 26.9479 38.4285 26.8738 38.5965 26.754C38.7655 26.635 38.872 26.3845 38.9202 26.0009L39.095 24.5688L39.0176 24.5771C38.862 24.9457 38.6556 25.2228 38.4002 25.4076C38.1422 25.594 37.8626 25.7022 37.5589 25.7338C37.0321 25.7887 36.6011 25.7046 36.2624 25.4808C35.9237 25.2553 35.7631 24.8001 35.7823 24.1103C35.7906 23.8715 35.8047 23.6301 35.828 23.3855C35.8513 23.1408 35.878 22.8937 35.9079 22.6432C36.0144 21.7686 36.2116 21.0414 36.4987 20.4605C36.7867 19.8797 37.3517 19.5444 38.1971 19.4561C38.5965 19.4145 38.9094 19.4561 39.1358 19.5826C39.3613 19.7083 39.5161 20.0012 39.6001 20.4597L39.6791 20.4381L39.7366 19.3338L41.4266 19.1574L40.676 25.2753L40.6769 25.2744ZM37.5397 23.026C37.4948 23.383 37.5056 23.6643 37.568 23.8681C37.6304 24.072 37.8609 24.1552 38.2612 24.1128C38.6764 24.0695 38.941 23.923 39.0559 23.6726C39.1699 23.4229 39.2498 23.115 39.2955 22.7489L39.3596 22.228C39.412 21.7986 39.412 21.4666 39.3613 21.2294C39.3105 20.9923 39.0659 20.8974 38.6273 20.9432C38.2429 20.9831 37.9966 21.0838 37.8876 21.2452C37.7802 21.4058 37.7003 21.7004 37.6487 22.129L37.6005 22.5176L37.5397 23.026Z"
            fill="white" />
    </symbol>
    <symbol id="sopharmacy">
        <path
            d="M37.3279 10.0679C37.3279 4.51175 32.8386 0 27.3101 0H20.4514C14.9229 0 10.4336 4.51175 10.4336 10.0679V10.4856H18.2483V10.0679C18.2483 8.85639 19.2044 7.89556 20.4099 7.89556H27.3101C28.5155 7.89556 29.4716 8.85639 29.4716 10.0679V10.4021V10.4856H37.2863V10.4021V10.0679H37.3279Z"
            fill="#AECA36" />
        <path d="M38.1637 10.4857H37.3282V18.3395H38.1637V10.4857Z" fill="#AECA36" />
        <path
            d="M10.0178 18.3395H10.3503H10.4335V10.4857H10.3503H10.0178C4.4893 10.4857 0 14.9975 0 20.5536V27.4883C0 33.0445 4.4893 37.5562 10.0178 37.5562H10.4335V29.6189H10.0178C8.81233 29.6189 7.85628 28.658 7.85628 27.4465V20.5536C7.85628 19.3421 8.81233 18.3395 10.0178 18.3395Z"
            fill="#53AE47" />
        <path d="M16.0863 29.6188H10.4332V37.5143H18.2895V31.8329V29.6188H16.0863Z" fill="#099146" />
        <path d="M10.4332 10.4857V18.3395H16.0863H18.2895V16.1672V10.4857H10.4332Z" fill="#09A24A" />
        <path d="M29.5129 10.4857V16.1672V18.3395H31.6743H37.3274V10.4857H29.5129Z" fill="#008F6E" />
        <path d="M31.6743 29.6188H29.5129V31.8329V37.5143H37.3274V29.6188H31.6743Z" fill="#009CB4" />
        <path
            d="M37.7434 18.3394H37.3277H31.6745H29.513V16.167V10.4856V10.402V10.0678C29.513 8.85634 28.5569 7.89551 27.3515 7.89551H20.4513C19.2458 7.89551 18.2897 8.85634 18.2897 10.0678V10.4856V16.167V18.3394H16.1282H10.4335H10.3503H10.0178C8.81233 18.3394 7.85628 19.3002 7.85628 20.5117V27.4464C7.85628 28.6579 8.81233 29.6187 10.0178 29.6187H10.4335H16.0867H18.2482V31.7911V37.4725V37.5978V37.932C18.2482 39.1435 19.2042 40.1044 20.4097 40.1044H27.3099C28.5154 40.1044 29.4714 39.1435 29.4714 37.932V37.5561V37.5143V31.8328V29.6605H31.6329H37.2861H37.7018C38.9073 29.6605 39.8633 28.6997 39.8633 27.4882V20.5535C39.9465 19.342 38.9488 18.3394 37.7434 18.3394Z"
            fill="white" />
        <path
            d="M47.7612 20.5534C47.7612 19.1331 47.4286 17.7545 46.8883 16.5012V16.4595C46.6804 15.9582 46.3894 15.4986 46.0985 15.0391C46.0153 14.9138 45.9322 14.7884 45.8075 14.6631C45.5581 14.3289 45.2671 13.9947 44.9761 13.6605C44.8514 13.5352 44.7267 13.4098 44.602 13.2845C44.2279 12.9503 43.8538 12.6161 43.4381 12.3237C43.3966 12.2819 43.3134 12.2401 43.2719 12.1984C42.8146 11.8642 42.2743 11.6135 41.7754 11.3629C41.6092 11.2793 41.4845 11.2375 41.3182 11.1958C40.9025 11.0286 40.4868 10.9033 40.0712 10.8198C39.9049 10.778 39.7386 10.7362 39.5724 10.6944C38.9904 10.5691 38.4085 10.5273 37.785 10.5273H37.3693V18.3811H37.785C38.9904 18.3811 39.9465 19.342 39.9465 20.5534V27.4882C39.9465 27.7806 39.9049 28.073 39.7802 28.3237C39.4477 29.1174 38.6579 29.6605 37.785 29.6605H37.4524H37.3693V37.5143H37.4524H37.785C38.4085 37.5143 38.9904 37.4307 39.5724 37.3472C39.7386 37.3054 39.9049 37.2636 40.0712 37.2218C40.4868 37.1383 40.9025 36.9712 41.3182 36.8459C41.4845 36.8041 41.6092 36.7205 41.7754 36.6788C42.3158 36.4281 42.8146 36.1775 43.2719 35.8433C43.3134 35.8015 43.3966 35.7597 43.4381 35.7179C43.8538 35.4255 44.2279 35.0913 44.602 34.7571C44.7267 34.6318 44.8514 34.5064 44.9761 34.3811C45.2671 34.0469 45.5581 33.7127 45.8075 33.3785C45.8906 33.2532 46.0153 33.1279 46.0985 33.0025C46.3894 32.543 46.6804 32.0835 46.8883 31.5822V31.5404C47.4286 30.2871 47.7612 28.9503 47.7612 27.4882V20.5534Z"
            fill="#00ACA9" />
        <path
            d="M29.513 37.5144V37.9322C29.513 39.1436 28.5569 40.1045 27.3515 40.1045H20.4513C19.2458 40.1045 18.2897 39.1436 18.2897 37.9322V37.598V37.5144H10.4335V37.598V37.9322C10.4335 43.4883 14.9228 48 20.4513 48H27.3515C32.88 48 37.3693 43.4883 37.3693 37.9322V37.5144H29.513Z"
            fill="#21BBDF" />
    </symbol>
    <symbol id="benu">
        <path
            d="M29.7499 30.7227C29.1134 30.7227 28.5647 30.6335 28.1029 30.4552C27.6407 30.2767 27.2599 30.0283 26.959 29.71C26.6587 29.3919 26.4364 29.0129 26.2924 28.5726C26.1486 28.1326 26.0769 27.647 26.0769 27.1155V21.4819H28.1159V26.9455C28.1159 27.3116 28.1574 27.6229 28.2401 27.88C28.3227 28.1372 28.436 28.3465 28.5796 28.5073C28.7236 28.6689 28.8976 28.7837 29.1027 28.8536C29.3074 28.9236 29.5319 28.9586 29.776 28.9586C30.2721 28.9586 30.6757 28.8062 30.9849 28.501C31.294 28.196 31.449 27.6775 31.449 26.9455V21.4819H33.488V27.1155C33.488 27.647 33.4137 28.1347 33.2657 28.579C33.1173 29.0236 32.8909 29.4049 32.5861 29.7232C32.2809 30.041 31.8933 30.2873 31.4227 30.4613C30.9523 30.6356 30.3944 30.7227 29.7499 30.7227ZM3.01943 30.6577C2.52271 30.6577 2.02814 30.6423 1.53586 30.6119C1.04343 30.5813 0.531429 30.5096 0 30.396V21.6125C0.418429 21.5337 0.875714 21.4752 1.37257 21.436C1.86929 21.3967 2.33086 21.3773 2.758 21.3773C3.33286 21.3773 3.86243 21.4189 4.34614 21.5016C4.82957 21.5845 5.24557 21.7259 5.59443 21.9263C5.94271 22.1267 6.21543 22.39 6.41157 22.717C6.60714 23.0437 6.70543 23.4467 6.70543 23.9259C6.70543 24.6492 6.35657 25.22 5.65971 25.6385C6.23486 25.8565 6.62686 26.1523 6.83614 26.5273C7.045 26.902 7.14971 27.3243 7.14971 27.795C7.14971 28.7449 6.80328 29.4596 6.11071 29.9385C5.41771 30.4179 4.38743 30.6577 3.01943 30.6577ZM8.52171 30.54V21.4819H14.6387V23.1939H10.5607V24.9715H14.1814V26.6449H10.5607V28.8277H14.9396V30.54H8.52171ZM22.5203 30.54C21.9364 29.503 21.3044 28.4792 20.6251 27.468C19.945 26.4575 19.222 25.5035 18.4553 24.6056V30.54H16.4424V21.4819H18.1021C18.39 21.7695 18.708 22.1223 19.0566 22.5405C19.4051 22.9589 19.7601 23.4052 20.1217 23.8802C20.4834 24.3556 20.8429 24.8476 21.2003 25.3573C21.5574 25.8672 21.8929 26.3573 22.2069 26.8279V21.4819H24.2326V30.54H22.5203ZM1.98686 26.5926V28.9322C2.135 28.9495 2.296 28.9626 2.47043 28.971C2.64486 28.9802 2.83643 28.9845 3.04557 28.9845C3.65543 28.9845 4.14786 28.8973 4.52257 28.7232C4.897 28.5487 5.08457 28.2262 5.08457 27.7559C5.08457 27.3375 4.92771 27.0392 4.614 26.8603C4.30029 26.6819 3.85157 26.5926 3.26786 26.5926H1.98686ZM1.98686 25.037H2.98029C3.60771 25.037 4.05643 24.9565 4.32643 24.7953C4.59643 24.634 4.73171 24.375 4.73171 24.0176C4.73171 23.6515 4.59214 23.3947 4.31343 23.2463C4.03429 23.0982 3.625 23.024 3.08486 23.024C2.91029 23.024 2.72314 23.0262 2.52271 23.0307C2.32229 23.0353 2.14357 23.0459 1.98686 23.0633V25.037Z"
            fill="#1D3276" />
        <path
            d="M47.359 21.5069H44.3635V18.5112C44.3635 18.23 44.1332 18 43.8523 18H39.3514C39.0702 18 38.8399 18.23 38.8399 18.5112V21.5069H35.8445C35.5633 21.5069 35.333 21.7369 35.333 22.0181V26.5193C35.333 26.8004 35.5633 27.0307 35.8445 27.0307H38.8399V30.0259C38.8399 30.3073 39.0702 30.5374 39.3514 30.5374H43.8523C44.1332 30.5374 44.3635 30.3073 44.3635 30.0259V27.0307H47.359C47.6404 27.0307 47.8704 26.8004 47.8704 26.5193V22.0181C47.8704 21.7369 47.6404 21.5069 47.359 21.5069Z"
            fill="#3BAA35" />
        <path
            d="M38.6849 25.8099C38.409 25.3239 38.2515 24.7616 38.2515 24.1627C38.2515 23.6662 38.36 23.195 38.554 22.7711C38.5633 22.8449 38.589 22.9765 38.6484 23.0751C38.7637 23.2675 39.0319 23.3624 39.0319 23.3624C39.0319 23.3624 38.8435 23.1716 38.7941 22.9378C38.7669 22.8072 38.7544 22.7054 38.7544 22.6186C38.7541 22.4952 38.779 22.4014 38.8205 22.2961C38.9242 22.0336 39.0939 21.8588 39.3751 21.6623C39.3607 21.7053 39.3426 21.7511 39.3375 21.8025C39.3356 21.8236 39.3346 21.8446 39.3346 21.866C39.3346 22.1453 39.5017 22.4197 39.5017 22.4197C39.5017 22.4197 39.4998 22.3934 39.4998 22.3491C39.4998 22.2324 39.5126 21.9912 39.604 21.7791C39.7316 21.483 39.8918 21.2927 40.0952 21.1725C40.4049 20.9905 40.6665 20.9329 40.9778 20.8746C40.9461 20.8997 40.9128 20.9255 40.8816 20.9559C40.6135 21.2165 40.6045 21.5054 40.6045 21.5427V21.5467C40.6045 21.5467 40.7897 21.2775 41.15 21.0888C41.1514 21.0881 41.153 21.0872 41.1546 21.0868C41.1566 21.0853 41.1588 21.0843 41.1612 21.083C41.1633 21.082 41.1652 21.0811 41.1674 21.0801C41.1724 21.0774 41.1772 21.0747 41.1822 21.0724H41.1828C41.501 20.9122 41.7853 20.8676 41.9938 20.8639C42.0044 20.8637 42.0148 20.8634 42.025 20.8634H42.0254C42.0943 20.8637 42.154 20.8679 42.2027 20.8735C42.2043 20.8738 42.2059 20.8738 42.2073 20.8741C42.2118 20.8746 42.2166 20.8751 42.2208 20.8757C42.7365 20.9409 43.201 21.1842 43.6013 21.4841C43.3276 21.37 43.027 21.3068 42.7117 21.3068C41.4362 21.3068 40.402 22.3406 40.402 23.6164C40.402 23.6478 40.403 23.6787 40.404 23.7096C39.4777 23.9969 38.7861 24.8162 38.6849 25.8099Z"
            fill="#C2DDAF" />
        <path
            d="M47.2176 24.0648C47.2176 24.0648 46.4522 23.83 45.5493 22.7634C45.5176 22.7264 45.4853 22.6915 45.4525 22.6574C45.8864 22.906 46.2067 23.1001 46.6046 23.0535C45.8488 22.8818 45.5144 22.2534 44.85 21.9983C43.5711 21.4904 42.6324 22.324 42.6324 22.324L42.6332 22.3248C42.5564 22.3738 42.4157 22.461 42.3496 22.5031C41.1693 23.2599 40.7149 23.6848 40.7149 23.6848L42.4437 22.8144C42.4437 22.8144 43.0743 23.4923 43.8077 22.7816C43.7717 22.7474 43.7224 22.7062 43.6584 22.6691C43.5372 22.5985 43.368 22.542 43.1481 22.5705C43.1822 22.6033 43.2037 22.6497 43.2037 22.7011C43.2037 22.8019 43.1214 22.8837 43.021 22.8837C42.92 22.8837 42.8381 22.8019 42.8381 22.7011C42.8381 22.6209 42.8895 22.5538 42.9607 22.5287L42.9842 22.5204L42.9884 22.5188C43.4116 22.4034 43.697 22.5747 43.8383 22.6989C44.2673 23.1392 44.1717 23.4769 44.1032 23.653C43.7458 24.3889 42.9479 24.2761 42.6121 24.1896C42.5717 24.1786 42.5322 24.1669 42.4944 24.1554C42.4709 24.1474 42.4573 24.1426 42.4573 24.1426L42.4571 24.1437C42.3462 24.1082 42.2497 24.0718 42.1793 24.0435C42.1417 24.0267 42.1039 24.0107 42.0653 23.9955L42.0592 23.9933C41.8009 23.8934 41.52 23.8377 41.2269 23.8377C39.9535 23.8377 38.9211 24.8707 38.9211 26.1441V26.1648C39.1436 26.4599 39.4072 26.7154 39.706 26.9219C39.724 26.9343 39.7424 26.9468 39.7609 26.959C39.8727 27.0328 39.9895 27.1 40.1102 27.1602L40.1094 27.1618C40.5566 27.3857 41.0608 27.512 41.5941 27.5133L41.5819 27.5056C41.3406 27.3153 41.2932 27.0177 41.2932 27.0177C41.2932 27.0177 41.4936 27.2639 41.762 27.3519C42.0008 27.4296 42.1975 27.4453 42.3403 27.4315C42.6314 27.4033 42.8509 27.298 43.0574 27.1808C42.9961 27.177 42.9245 27.1674 42.8589 27.1549C42.4578 27.079 42.3166 26.7312 42.3166 26.7312C42.3166 26.7312 42.6684 26.8857 42.9945 26.9006C43.4711 26.9228 43.7208 26.7351 43.8631 26.6317C44.0645 26.4851 44.2322 26.2944 44.3529 26.0681C44.2994 26.0966 44.2405 26.1237 44.1762 26.1494C43.8404 26.2824 43.3639 26.0742 43.3639 26.0742C43.3639 26.0742 43.7701 26.0556 44.1488 25.8091C44.6383 25.4898 44.7825 25.1681 44.8438 24.9802C44.9267 24.7279 44.9425 24.452 44.9425 24.174C44.9425 24.1362 44.9411 24.0986 44.94 24.0613C44.9246 24.1258 44.9046 24.189 44.879 24.251C44.4902 25.2108 43.0574 25.5354 41.6791 24.9762C41.6085 24.9477 41.54 24.9171 41.4726 24.8851L41.4774 24.8446C41.5334 24.6743 41.6567 24.533 41.9277 24.6201C42.09 24.6746 42.3227 24.7369 42.5266 24.7806C44.0105 25.0879 44.6048 24.008 44.6711 23.7506C44.8457 23.0095 44.4966 22.5332 44.4174 22.437C44.37 22.3731 44.3186 22.3163 44.2641 22.2726C44.5763 22.3544 44.9521 22.5433 45.3534 22.9425C46.4071 23.991 47.2176 24.0648 47.2176 24.0648Z"
            fill="white" />
    </symbol>
</svg>